<?xml version="1.0" encoding="utf-8"?>
<!-- Generator: Adobe Illustrator 24.0.0, SVG Export Plug-In . SVG Version: 6.00 Build 0)  -->
<svg version="1.1" xmlns="http://www.w3.org/2000/svg" xmlns:xlink="http://www.w3.org/1999/xlink" x="0px" y="0px"
	 viewBox="0 0 256 256" enable-background="new 0 0 256 256" xml:space="preserve">
<g id="Layer_1">
</g>
<g id="Layer_2">
</g>
<g id="Layer_3">
</g>
<g id="Layer_4">
</g>
<g id="Layer_5">
</g>
<g id="Layer_6">
</g>
<g id="Layer_7">
</g>
<g id="Layer_8">
</g>
<g id="Layer_9">
</g>
<g id="Layer_10">
</g>
<g id="Layer_11">
</g>
<g id="Layer_12">
</g>
<g id="Layer_13">
</g>
<g id="Layer_14">
</g>
<g id="Layer_15">
</g>
<g id="Layer_16">
</g>
<g id="Layer_17">
</g>
<g id="Layer_18">
</g>
<g id="Layer_19">
</g>
<g id="Layer_20">
</g>
<g id="Layer_21">
</g>
<g id="Layer_22">
</g>
<g id="Layer_23">
</g>
<g id="Layer_24">
</g>
<g id="Layer_25">
</g>
<g id="Layer_26">
</g>
<g id="Layer_27">
</g>
<g id="Layer_28">
</g>
<g id="Layer_29">
</g>
<g id="Layer_30">
</g>
<g id="Layer_31">
</g>
<g id="Layer_32">
</g>
<g id="Layer_33">
</g>
<g id="Layer_34">
</g>
<g id="Layer_35">
</g>
<g id="Layer_36">
</g>
<g id="Layer_37">
</g>
<g id="Layer_38">
</g>
<g id="Layer_39">
</g>
<g id="Layer_40">
</g>
<g id="Layer_41">
</g>
<g id="Layer_42">
</g>
<g id="Layer_43">
</g>
<g id="Layer_44">
</g>
<g id="Layer_45">
</g>
<g id="Layer_46">
</g>
<g id="Layer_47">
</g>
<g id="Layer_48">
</g>
<g id="Layer_49">
</g>
<g id="Layer_50">
</g>
<g id="Layer_51">
</g>
<g id="Layer_52">
</g>
<g id="Layer_53">
</g>
<g id="Layer_54">
</g>
<g id="Layer_55">
</g>
<g id="Layer_56">
</g>
<g id="Layer_57">
</g>
<g id="Layer_58">
</g>
<g id="Layer_59">
</g>
<g id="Layer_60">
</g>
<g id="Layer_61">
	<g>
		<g>
			<g>
				
					<ellipse transform="matrix(0.9971 -0.0763 0.0763 0.9971 -3.2554 12.4381)" fill="#FFF" cx="161.131" cy="48.818" rx="17.201" ry="17.201"/>
			</g>
		</g>
		<g>
			<g>
				<path fill="#E8FF3F" d="M175.346,98.281l-18.212-18.94c-2.337-2.43-5.038-4.482-8.007-6.08l-16.647-8.964
					c-1.912-1.03-3.14-2.991-3.23-5.161l-0.697-16.74c-0.049-1.179-1.019-2.109-2.199-2.109h-16.187
					c-1.215,0-2.201,0.979-2.201,2.195c0,5.88,0.224,22.466,2.545,36.103c0.386,2.271,0.144,4.601-0.763,6.718
					c-5.661,13.221-10.595,25.264-14.253,48.963c-0.32,2.071,1.136,4.002,3.216,4.253l34.601,4.183
					c2.125,0.257,4.032-1.333,4.14-3.471c0.407-8.055,1.074-19.33,6.914-35.726c0.573-1.608,2.615-2.093,3.852-0.917l11.329,10.762
					c0.847,0.804,2.174,0.807,3.024,0.007l12.695-11.948C176.16,100.57,176.195,99.164,175.346,98.281z"/>
			</g>
		</g>
		<g>
			<g>
				<path fill="#FFF" d="M177.703,103.735l-2.384-2.384c-0.018,0.019-0.032,0.04-0.051,0.059l-11.77,11.078l2.727,2.727
					c0.259,0.26,0.259,0.681,0,0.94l-25.356,25.355c-3.17,3.17-3.17,8.31,0,11.479c3.171,3.17,8.309,3.169,11.478,0l25.356-25.356
					C184.291,121.043,184.291,110.323,177.703,103.735z"/>
			</g>
		</g>
		<g>
			<g>
				<path fill="#FFF" d="M168.15,7.673c-1.626-4.176-6.332-6.243-10.509-4.618l-34.787,13.549
					c-8.032,3.127-13.222,10.718-13.222,19.338v4.418c0.172-0.043,0.349-0.073,0.534-0.073h15.699v-4.346
					c0-1.877,1.13-3.53,2.879-4.211l34.787-13.549C167.709,16.554,169.777,11.85,168.15,7.673z"/>
			</g>
		</g>
		<g>
			<g>
				<path fill="#FFF" d="M139.878,178.375l-3.478-36.778c-0.776,0.795-1.891,1.249-3.088,1.104l-34.601-4.183
					c-0.731-0.088-1.378-0.393-1.905-0.829c-1.604,5.959-5.24,20.718-6.81,37.307c-0.089,0.938,0.296,1.86,1.03,2.452
					c2.337,1.886,8.258,5.499,18.117,4.1c1.17-0.166,2.11-1.062,2.351-2.218l2.626-12.604c0.34-1.631,2.7-1.535,2.907,0.118
					l1.578,12.625c0.138,1.106,0.909,2.027,1.977,2.348c3.322,0.999,10.809,2.583,17.737-0.646
					C139.379,180.677,139.988,179.54,139.878,178.375z"/>
			</g>
		</g>
		<g>
			<g>
				<path fill="#FFF" d="M91.831,160.923c-0.721,4.413-1.37,9.159-1.835,14.075c-0.089,0.938,0.296,1.86,1.03,2.452
					c1.827,1.474,5.855,3.994,12.232,4.36C102.663,170.782,95.836,163.984,91.831,160.923z"/>
			</g>
		</g>
		<g>
			<g>
				<path fill="#FFF" d="M139.878,178.375l-1.478-15.629c-4.459,3.209-10.916,9.617-11.884,20.225
					c3.494,0.328,7.741,0.093,11.802-1.8C139.379,180.677,139.988,179.54,139.878,178.375z"/>
			</g>
		</g>
		<g>
			<g>
				<path fill="#727272" d="M167.872,243.386c-3.454-0.32-7.717-1.513-10.951-3.51l-7.116-4.396
					c-1.732-1.07-3.899-1.145-5.701-0.197l-6.573,3.457c-2.376,1.25-5.334,0.395-6.642-1.95c-0.423-0.759-0.735-1.512-0.995-2.078
					c-0.624-1.359-2.52-1.492-3.321-0.192l-4.373,13.121c-0.373,2.106,1.095,3.902,3.177,4.028l31.365,1.906
					c8.83,0.536,12.086-3.79,13.11-5.785C170.822,245.904,169.808,243.566,167.872,243.386z"/>
			</g>
		</g>
		<g>
			<g>
				<path fill="#FFF" d="M138.437,181.104c-0.04,0.021-0.077,0.048-0.119,0.068c-6.765,3.154-14.053,1.719-17.485,0.719
					c1.825,13.758,4.369,33.79,7.903,51.812c0.485,0.147,0.919,0.484,1.16,1.01c0.26,0.566,0.571,1.319,0.995,2.078
					c1.308,2.345,4.265,3.2,6.642,1.95l6.573-3.457c0.847-0.446,1.775-0.656,2.7-0.653
					C143.042,216.722,140.354,195.359,138.437,181.104z"/>
			</g>
		</g>
		<g>
			<g>
				<path fill="#727272" d="M112.167,247.641l-4.373-13.121c-0.801-1.301-2.697-1.167-3.321,0.192
					c-0.26,0.566-0.571,1.319-0.995,2.078c-1.308,2.345-4.265,3.2-6.642,1.95l-6.573-3.457c-1.801-0.948-3.969-0.873-5.701,0.197
					l-7.116,4.396c-3.234,1.998-7.497,3.19-10.951,3.51c-1.935,0.179-2.949,2.517-1.981,4.403c1.024,1.995,4.28,6.322,13.11,5.785
					l31.365-1.906C111.073,251.543,112.541,249.747,112.167,247.641z"/>
			</g>
		</g>
		<g>
			<g>
				<path fill="#FFF" d="M91.783,178.019c-1.615,14.837-3.019,36.972-3.643,56.631c0.731,0.071,1.453,0.281,2.124,0.634
					l6.573,3.457c2.376,1.25,5.334,0.395,6.642-1.95c0.423-0.759,0.735-1.512,0.995-2.078c0.253-0.551,0.717-0.889,1.231-1.023
					c0.606-18.014,1.882-38.376,3.352-52.13C100.166,182.796,94.502,179.961,91.783,178.019z"/>
			</g>
		</g>
		<g>
			<g>
				<path fill="#E8FF3F" d="M129.25,59.136l-0.697-16.74c-0.049-1.179-1.019-2.109-2.199-2.109h-16.187
					c-1.215,0-2.201,0.979-2.201,2.195c0,5.88,0.224,22.466,2.545,36.103c0.148,0.869,0.202,1.747,0.164,2.618
					c7.615-10.968,17.356-15.484,21.62-17.023C130.493,63.125,129.338,61.232,129.25,59.136z"/>
			</g>
		</g>
		<g>
			<g>
				<path fill="#E8FF3F" d="M175.346,98.281l-18.212-18.94c-0.804-0.836-1.665-1.609-2.551-2.352
					c-3.92,3.906-10.299,12.379-8.883,25.14c0.816-0.332,1.801-0.224,2.519,0.459l11.329,10.762
					c0.847,0.804,2.174,0.807,3.024,0.007l12.695-11.948C176.16,100.57,176.195,99.164,175.346,98.281z"/>
			</g>
		</g>
		<g>
			<g>
				<path fill="#FFF" d="M88.48,225.5c-0.13,3.083-0.245,6.147-0.34,9.15c0.731,0.071,1.453,0.281,2.124,0.634l6.573,3.457
					c2.376,1.25,5.334,0.395,6.642-1.95c0.423-0.759,0.735-1.512,0.995-2.078c0.253-0.551,0.717-0.889,1.231-1.023
					c0.09-2.687,0.197-5.428,0.316-8.189H88.48z"/>
			</g>
		</g>
		<g>
			<g>
				<path fill="#FFF" d="M145.027,225.5h-17.81c0.486,2.76,0.99,5.505,1.519,8.202c0.485,0.147,0.919,0.484,1.16,1.01
					c0.26,0.566,0.571,1.319,0.995,2.078c1.308,2.345,4.265,3.2,6.642,1.95l6.573-3.457c0.847-0.446,1.775-0.656,2.7-0.653
					C146.183,231.667,145.592,228.605,145.027,225.5z"/>
			</g>
		</g>
		<g>
			<g>
				<path fill="#E8FF3F" d="M95.183,46.025c-4.5-0.8-8-4.3-8.9-8.7c0-0.2-0.4-0.2-0.4,0c-0.9,4.4-4.4,7.9-8.9,8.7
					c-0.2,0-0.2,0.3,0,0.4c4.5,0.8,8,4.3,8.9,8.7c0,0.2,0.4,0.2,0.4,0c0.9-4.4,4.4-7.9,8.9-8.7
					C95.383,46.325,95.383,46.025,95.183,46.025z"/>
			</g>
		</g>
		<g>
			<g>
				<path fill="#E8FF3F" d="M194.254,87.002c-3.052-0.543-5.425-2.916-6.036-5.9c0-0.135-0.271-0.135-0.271,0
					c-0.61,2.984-2.984,5.358-6.036,5.9c-0.136,0-0.136,0.203,0,0.271c3.052,0.542,5.425,2.916,6.036,5.9
					c0,0.135,0.271,0.135,0.271,0c0.61-2.984,2.984-5.358,6.036-5.9C194.39,87.205,194.39,87.002,194.254,87.002z"/>
			</g>
		</g>
		<g>
			<g>
				<path fill="#E8FF3F" d="M174.47,164.35h-2.3v-2.3c0-1.8-1.4-3.2-3.2-3.2c-1.8,0-3.2,1.5-3.2,3.2v2.3h-2.3
					c-1.8,0-3.2,1.4-3.2,3.2s1.5,3.2,3.2,3.2h2.3v2.3c0,1.8,1.4,3.2,3.2,3.2c1.8,0,3.2-1.5,3.2-3.2v-2.3h2.3c1.8,0,3.2-1.4,3.2-3.2
					S176.17,164.35,174.47,164.35z"/>
			</g>
		</g>
		<g>
			<g>
				<path fill="#E8FF3F" d="M97.083,18.15c-1.878,0-3.4,1.522-3.4,3.4s1.522,3.4,3.4,3.4s3.4-1.522,3.4-3.4
					S98.961,18.15,97.083,18.15z"/>
			</g>
		</g>
		<g>
			<g>
				<path fill="#E8FF3F" d="M155.87,187.825c-1.878,0-3.4,1.522-3.4,3.4c0,1.878,1.522,3.4,3.4,3.4s3.4-1.522,3.4-3.4
					C159.27,189.347,157.748,187.825,155.87,187.825z"/>
			</g>
		</g>
		<g>
			<g>
				<g>
					<g>
						<path d="M179.412,41.472c-4.051-10.079-15.547-14.988-25.626-10.935c-10.08,4.05-14.985,15.546-10.935,25.627
							c1.962,4.882,5.708,8.709,10.548,10.773c2.485,1.061,5.106,1.592,7.729,1.592c2.485,0,4.973-0.477,7.348-1.432
							c4.883-1.962,8.709-5.708,10.775-10.548S181.374,46.354,179.412,41.472z M174.652,54.587c-1.541,3.612-4.396,6.407-8.04,7.872
							c-7.522,3.021-16.1-0.639-19.122-8.159c-3.022-7.522,0.638-16.102,8.16-19.124c1.791-0.719,3.641-1.06,5.463-1.06
							c5.828,0,11.356,3.489,13.659,9.221C176.236,46.979,176.194,50.976,174.652,54.587z"/>
					</g>
				</g>
			</g>
		</g>
		<g>
			<g>
				<g>
					<g>
						<path d="M177.148,96.548L177.148,96.548l-18.212-18.939c-2.52-2.621-5.421-4.824-8.624-6.549l-16.647-8.964
							c-1.129-0.608-1.864-1.782-1.917-3.064l-0.698-16.738c-0.105-2.526-2.168-4.506-4.697-4.506h-16.187
							c-2.592,0-4.701,2.105-4.701,4.694c0,6.424,0.251,22.842,2.581,36.522c0.312,1.837,0.106,3.675-0.597,5.314
							c-5.208,12.166-10.595,24.747-14.425,49.567c-0.259,1.679,0.164,3.35,1.19,4.704c1.024,1.352,2.515,2.208,4.197,2.412
							l34.601,4.183c0.247,0.029,0.493,0.044,0.739,0.044c1.457,0,2.885-0.515,4.007-1.46c1.306-1.1,2.104-2.708,2.19-4.411
							c0.374-7.394,0.937-18.552,6.701-34.812l11.177,10.618c1.807,1.713,4.644,1.722,6.459,0.014l12.695-11.948
							c0.921-0.867,1.446-2.041,1.478-3.306S178.025,97.461,177.148,96.548z M161.065,111.343l-11.124-10.567
							c-1.197-1.137-2.873-1.587-4.479-1.204c-1.606,0.384-2.896,1.54-3.45,3.095c-6.078,17.062-6.666,28.723-7.056,36.439
							c-0.022,0.442-0.272,0.716-0.418,0.839c-0.15,0.127-0.47,0.336-0.926,0.275l-34.6-4.182c-0.439-0.054-0.698-0.316-0.813-0.469
							c-0.117-0.153-0.302-0.478-0.233-0.922c3.734-24.195,8.994-36.48,14.081-48.36c1.082-2.526,1.403-5.335,0.929-8.122
							c-2.229-13.095-2.501-28.88-2.509-35.378h15.601l0.686,16.452c0.126,3.037,1.867,5.818,4.543,7.259l16.647,8.964
							c2.744,1.478,5.23,3.366,7.39,5.611l18.002,18.723L161.065,111.343z"/>
					</g>
				</g>
			</g>
		</g>
		<g>
			<g>
				<g>
					<g>
						<path d="M179.47,101.967l-1.745-1.745c-0.976-0.977-2.56-0.977-3.535,0c-0.977,0.977-0.977,2.559,0,3.535l1.745,1.745
							c5.613,5.614,5.614,14.748,0.001,20.361L150.58,151.22c-2.19,2.189-5.753,2.189-7.943,0c-2.19-2.19-2.19-5.754,0-7.944
							l25.357-25.357c1.229-1.231,1.229-3.236-0.002-4.473l-2.336-2.336c-0.976-0.977-2.56-0.977-3.535,0
							c-0.977,0.977-0.977,2.559,0,3.535l1.038,1.038l-24.057,24.058c-4.14,4.14-4.14,10.875,0,15.015
							c2.07,2.069,4.788,3.104,7.507,3.104c2.718-0.001,5.437-1.035,7.506-3.104l25.356-25.356
							C187.033,121.836,187.033,109.53,179.47,101.967z"/>
					</g>
				</g>
			</g>
		</g>
		<g>
			<g>
				<path d="M170.479,6.766c-2.124-5.454-8.29-8.165-13.746-6.04l-34.787,13.548c-9,3.505-14.814,12.01-14.814,21.668v3.642
					c0,1.381,1.119,2.5,2.5,2.5s2.5-1.119,2.5-2.5v-3.642c0-7.581,4.564-14.257,11.629-17.009l34.786-13.548
					c2.888-1.122,6.149,0.311,7.272,3.195c0.544,1.398,0.512,2.924-0.091,4.298c-0.604,1.373-1.706,2.43-3.104,2.975L127.839,29.4
					c-2.717,1.058-4.473,3.625-4.473,6.541v3.767c0,1.381,1.119,2.5,2.5,2.5s2.5-1.119,2.5-2.5v-3.767
					c0-0.852,0.493-1.572,1.287-1.882l34.787-13.549c2.643-1.028,4.726-3.025,5.867-5.622
					C171.447,12.293,171.509,9.408,170.479,6.766z"/>
			</g>
		</g>
		<g>
			<g>
				<path d="M142.367,178.14l-3.407-36.031c-0.13-1.374-1.344-2.38-2.724-2.254c-1.375,0.13-2.383,1.35-2.253,2.725l3.407,36.03
					c0.013,0.142-0.054,0.262-0.127,0.296c-6.256,2.918-13.246,1.335-15.961,0.518c-0.117-0.035-0.199-0.136-0.215-0.264
					l-1.578-12.625c-0.246-1.967-1.801-3.396-3.782-3.478c-1.984-0.08-3.648,1.22-4.052,3.161l-2.625,12.604
					c-0.027,0.131-0.132,0.235-0.255,0.252c-9.036,1.283-14.336-2.068-16.195-3.569c-0.08-0.063-0.121-0.165-0.111-0.271
					c1.543-16.316,5.162-31.002,6.646-36.56c0.356-1.334-0.437-2.704-1.771-3.06c-1.335-0.354-2.704,0.437-3.061,1.771
					c-1.516,5.678-5.213,20.687-6.792,37.378c-0.168,1.78,0.56,3.512,1.948,4.633c2.941,2.373,9.459,6.134,20.039,4.63
					c2.204-0.313,3.991-1.994,4.447-4.184l1.369-6.569l0.813,6.508c0.261,2.09,1.729,3.829,3.738,4.433
					c2.18,0.655,5.479,1.397,9.235,1.397c3.229,0,6.795-0.549,10.277-2.173C141.375,182.504,142.578,180.376,142.367,178.14z"/>
			</g>
		</g>
		<g>
			<g>
				<g>
					<g>
						<path d="M172.031,243.518c-0.831-1.512-2.262-2.467-3.928-2.62c-3.463-0.321-7.244-1.527-9.867-3.148l-7.116-4.396
							c-2.472-1.527-5.605-1.635-8.177-0.283l-6.573,3.457c-1.179,0.619-2.655,0.191-3.295-0.956
							c-0.274-0.492-0.507-1.014-0.712-1.474l-0.193-0.43c-0.676-1.471-2.101-2.446-3.717-2.545
							c-1.613-0.075-3.151,0.702-4.004,2.086c-0.101,0.164-0.183,0.339-0.243,0.521l-4.373,13.12
							c-0.039,0.115-0.069,0.233-0.09,0.354c-0.299,1.692,0.121,3.414,1.155,4.726c1.037,1.315,2.617,2.13,4.333,2.233l31.365,1.906
							c0.562,0.034,1.103,0.051,1.627,0.051c9.138-0.001,12.715-4.962,13.859-7.19C172.963,247.206,172.945,245.183,172.031,243.518
							z M167.63,246.648c-0.761,1.482-3.343,4.881-10.734,4.432l-31.366-1.906c-0.299-0.019-0.551-0.139-0.708-0.339
							c-0.132-0.167-0.191-0.381-0.175-0.623l3.658-10.975c0.123,0.249,0.256,0.508,0.403,0.771
							c1.949,3.495,6.429,4.814,9.989,2.945l6.573-3.457c1.014-0.534,2.249-0.489,3.222,0.111l7.116,4.396
							c3.281,2.027,7.768,3.474,12.008,3.871C167.692,245.964,167.812,246.293,167.63,246.648z"/>
					</g>
				</g>
			</g>
		</g>
		<g>
			<g>
				<path d="M149.167,233.714c-3.317-15.902-5.816-34.666-7.641-48.367l-0.506-3.796c-0.184-1.368-1.437-2.335-2.81-2.146
					c-1.369,0.183-2.329,1.441-2.146,2.81l0.506,3.792c1.834,13.777,4.348,32.646,7.703,48.729c0.246,1.18,1.286,1.99,2.445,1.99
					c0.169,0,0.341-0.018,0.513-0.054C148.583,236.39,149.45,235.065,149.167,233.714z"/>
			</g>
		</g>
		<g>
			<g>
				<path d="M131.114,232.836c-3.2-16.409-5.6-34.595-7.352-47.873l-0.336-2.547c-0.181-1.367-1.435-2.329-2.807-2.15
					c-1.369,0.182-2.332,1.438-2.15,2.807l0.336,2.545c1.761,13.343,4.172,31.616,7.402,48.176c0.232,1.193,1.279,2.021,2.451,2.021
					c0.159,0,0.32-0.015,0.481-0.046C130.494,235.504,131.378,234.191,131.114,232.836z"/>
			</g>
		</g>
		<g>
			<g>
				<g>
					<g>
						<path d="M114.629,247.205c-0.021-0.121-0.052-0.239-0.09-0.354l-4.373-13.12c-0.061-0.183-0.142-0.357-0.243-0.521
							c-0.853-1.384-2.392-2.179-4.004-2.086c-1.617,0.099-3.041,1.074-3.718,2.547l-0.193,0.428
							c-0.205,0.46-0.438,0.981-0.713,1.475c-0.639,1.146-2.116,1.574-3.294,0.955l-6.573-3.457
							c-2.572-1.352-5.706-1.244-8.178,0.283l-7.116,4.396c-2.623,1.621-6.404,2.827-9.867,3.148
							c-1.666,0.153-3.098,1.109-3.928,2.621c-0.915,1.664-0.932,3.688-0.047,5.413c1.144,2.228,4.719,7.189,13.858,7.189
							c0.524,0,1.066-0.017,1.627-0.051l31.364-1.906c1.717-0.104,3.296-0.918,4.333-2.233
							C114.508,250.619,114.929,248.897,114.629,247.205z M66.728,245.876h-0.001l-0.229-2.489L66.728,245.876z M109.548,248.835
							c-0.158,0.2-0.409,0.32-0.709,0.339l-31.364,1.906c-7.403,0.453-9.974-2.949-10.734-4.432
							c-0.182-0.355-0.063-0.685,0.014-0.774c4.24-0.397,8.727-1.844,12.008-3.871l7.115-4.396c0.975-0.602,2.209-0.646,3.223-0.111
							l6.573,3.457c3.556,1.871,8.039,0.549,9.988-2.944c0.147-0.264,0.281-0.522,0.404-0.771l3.658,10.975
							C109.739,248.454,109.68,248.668,109.548,248.835z"/>
					</g>
				</g>
			</g>
		</g>
		<g>
			<g>
				<path d="M109.239,179.803c-1.374-0.152-2.603,0.854-2.747,2.227c-1.394,13.32-2.646,32.891-3.27,51.074
					c-0.047,1.38,1.033,2.537,2.413,2.584c0.029,0.002,0.058,0.002,0.087,0.002c1.341,0,2.451-1.063,2.497-2.414
					c0.619-18.076,1.863-37.514,3.245-50.727C111.608,181.176,110.612,179.946,109.239,179.803z"/>
			</g>
		</g>
		<g>
			<g>
				<path d="M91.974,176.227c-1.375-0.129-2.604,0.849-2.751,2.221c-1.563,14.629-2.929,35.937-3.564,55.606
					c-0.045,1.38,1.038,2.535,2.418,2.58c0.027,0.001,0.055,0.001,0.082,0.001c1.343,0,2.454-1.066,2.497-2.419
					c0.632-19.557,1.988-40.723,3.539-55.237C94.341,177.605,93.347,176.374,91.974,176.227z"/>
			</g>
		</g>
		<g>
			<g>
				<path d="M134.222,63.453c-0.486-1.292-1.927-1.949-3.22-1.461c-4.992,1.876-14.507,6.636-22.14,17.44
					c-0.796,1.128-0.528,2.688,0.6,3.484c0.438,0.31,0.941,0.458,1.44,0.458c0.784,0,1.557-0.368,2.044-1.058
					c6.861-9.713,15.359-13.971,19.814-15.646C134.053,66.187,134.707,64.745,134.222,63.453z"/>
			</g>
		</g>
		<g>
			<g>
				<path d="M155.818,75.689c-0.996-0.956-2.579-0.921-3.535,0.074c-3.962,4.131-10.414,13.027-9.114,26.202
					c0.127,1.291,1.214,2.255,2.485,2.255c0.082,0,0.165-0.004,0.249-0.012c1.374-0.136,2.378-1.359,2.242-2.733
					c-1.104-11.182,4.38-18.74,7.747-22.251C156.848,78.229,156.815,76.646,155.818,75.689z"/>
			</g>
		</g>
		<g>
			<g>
				<path d="M105.167,223H89.188c-1.381,0-2.5,1.119-2.5,2.5s1.119,2.5,2.5,2.5h15.979c1.381,0,2.5-1.119,2.5-2.5
					S106.548,223,105.167,223z"/>
			</g>
		</g>
		<g>
			<g>
				<path d="M144.313,223H128c-1.381,0-2.5,1.119-2.5,2.5s1.119,2.5,2.5,2.5h16.313c1.381,0,2.5-1.119,2.5-2.5
					S145.694,223,144.313,223z"/>
			</g>
		</g>
		<g>
			<g>
				<path d="M93.924,159.386c-1.078-0.864-2.651-0.688-3.514,0.391c-0.863,1.078-0.688,2.651,0.391,3.514
					c3.385,2.707,9.174,8.646,9.917,18.006c0.104,1.309,1.198,2.302,2.489,2.302c0.066,0,0.133-0.003,0.201-0.008
					c1.376-0.109,2.404-1.313,2.294-2.69C104.811,169.664,97.94,162.598,93.924,159.386z"/>
			</g>
		</g>
		<g>
			<g>
				<path d="M139.804,161.676c-0.833-1.101-2.4-1.321-3.502-0.488c-4.906,3.705-11.005,10.332-12.204,20.858
					c-0.156,1.372,0.829,2.611,2.201,2.768c0.096,0.011,0.191,0.016,0.286,0.016c1.254,0,2.336-0.941,2.481-2.217
					c0.998-8.766,6.125-14.319,10.25-17.435C140.417,164.346,140.636,162.777,139.804,161.676z"/>
			</g>
		</g>
	</g>
</g>
<g id="Layer_62">
</g>
<g id="Layer_63">
</g>
<g id="Layer_64">
</g>
<g id="Layer_65">
</g>
<g id="Layer_66">
</g>
<g id="Layer_67">
</g>
<g id="Layer_68">
</g>
<g id="Layer_69">
</g>
<g id="Layer_70">
</g>
<g id="Layer_71">
</g>
<g id="Layer_72">
</g>
<g id="Layer_73">
</g>
<g id="Layer_74">
</g>
<g id="Layer_75">
</g>
</svg>
