<svg xmlns="http://www.w3.org/2000/svg" viewBox="0 0 32 32"><defs><style>.cls-1{fill:#FFF;}.cls-2{fill:#FFF;}.cls-3{fill:#E8FF3F;}.cls-4{fill:#727272;}</style></defs><title>Diet</title><g id="Diet"><path class="cls-1" d="M27,20.27c0,3.47-.68,5.46-2,10.73H18c-1-8.67-.8-8.4-1.34-8.78a1.12,1.12,0,0,0-1.77.77c-.05.45.12-1.06-.89,8H7c-1.34-5.33-2-7.28-2-10.73C5,11.71,9.75,9.33,7.86,1H24.14C22.22,9.47,27,11.58,27,20.27Z"/><path class="cls-2" d="M17,11a1,1,0,0,1-2,0A1,1,0,0,1,17,11Z"/><path class="cls-3" d="M24.14,1a15.89,15.89,0,0,0-.4,4H8.26a15.89,15.89,0,0,0-.4-4Z"/><path class="cls-4" d="M25,31H18c-1-8.67-.8-8.4-1.34-8.78a1.12,1.12,0,0,0-1.77.77c-.05.45.12-1.06-.89,8H7c-1.38-5.49-2.78-9.38-1.52-15.3,9.41,1.63,10,1.9,21,0C27.78,21.62,26.32,25.71,25,31Z"/><rect class="cls-2" x="1" y="6" width="2" height="2"/><polygon class="cls-2" points="3 9 3 5 6 7 3 9"/><rect class="cls-2" x="29" y="6" width="2" height="2" transform="translate(60 14) rotate(-180)"/><polygon class="cls-2" points="29 9 29 5 26 7 29 9"/></g></svg>