<svg version="1.1" id="Layer_1" xmlns="http://www.w3.org/2000/svg" xmlns:xlink="http://www.w3.org/1999/xlink" x="0px" y="0px"
	 width="100%" viewBox="0 0 256 256" enable-background="new 0 0 256 256" xml:space="preserve">
<path fill="#000000" opacity="1.000000" stroke="none" 
	d="
M151.000000,257.000000 
	C100.666672,257.000000 50.833340,257.000000 1.000007,257.000000 
	C1.000005,171.666672 1.000005,86.333351 1.000002,1.000018 
	C86.333321,1.000012 171.666641,1.000012 257.000000,1.000006 
	C257.000000,86.333313 257.000000,171.666626 257.000000,256.999969 
	C221.833328,257.000000 186.666672,257.000000 151.000000,257.000000 
M146.493896,226.561218 
	C146.464691,230.226456 146.531128,233.895676 146.378250,237.555740 
	C146.236694,240.944946 143.945633,243.271576 140.963455,242.665466 
	C138.761154,242.217880 136.746643,239.692261 135.201492,237.669937 
	C134.468918,236.711121 135.007126,234.764603 135.006851,233.265549 
	C135.002289,207.935226 135.005508,182.604889 134.998657,157.274567 
	C134.998260,155.776947 135.509338,153.824539 134.768311,152.875946 
	C133.202469,150.871490 130.966583,148.071091 129.002518,148.068665 
	C127.044579,148.066238 124.807793,150.870361 123.243118,152.873489 
	C122.500824,153.823792 123.002274,155.773956 123.001823,157.271179 
	C122.994270,182.601501 123.001053,207.931824 122.985832,233.262146 
	C122.984833,234.921936 123.440155,237.035873 122.614975,238.140732 
	C121.180786,240.061005 119.006714,242.410202 116.964088,242.594116 
	C115.227829,242.750443 112.878036,240.388306 111.496902,238.601532 
	C110.651672,237.508072 111.022507,235.397888 111.016891,233.743744 
	C110.941689,211.579849 110.921280,189.415741 110.825226,167.251953 
	C110.802910,162.101273 108.333237,158.875687 104.609367,159.316299 
	C100.181541,159.840225 98.755203,162.773087 98.785034,167.076828 
	C98.946732,190.406586 98.838692,213.738434 99.050240,237.067520 
	C99.174400,250.759567 113.212440,259.159546 125.293488,252.716858 
	C128.214462,251.159119 130.017151,251.419144 132.785217,252.828033 
	C144.742676,258.914215 157.515121,251.586914 158.325912,238.162903 
	C158.747070,231.189789 158.444092,224.172409 158.451035,217.175003 
	C158.454712,213.470566 156.180954,211.545822 152.878250,211.383194 
	C149.559586,211.219772 147.078354,213.040634 146.734421,216.612595 
	C146.448105,219.586243 146.559006,222.598129 146.493896,226.561218 
M148.500000,70.997765 
	C132.348419,70.998268 116.196793,70.975899 100.045303,71.015327 
	C95.996529,71.025208 93.083641,72.870094 93.173820,77.182953 
	C93.257957,81.206833 96.093231,82.886154 99.915642,82.992668 
	C101.246719,83.029755 102.579643,83.002068 103.911720,83.002075 
	C142.209305,83.002281 180.506897,82.985321 218.804428,83.032333 
	C222.091461,83.036369 226.872147,81.856812 226.740891,87.113617 
	C226.611969,92.277214 221.832001,90.798653 218.566299,90.974113 
	C215.909332,91.116867 212.944473,90.334869 210.662506,91.280891 
	C208.441391,92.201668 205.578674,94.716171 205.459991,96.679756 
	C205.342285,98.626884 208.123245,102.321365 209.934586,102.521698 
	C215.639816,103.152718 221.649429,103.299507 227.239807,102.157768 
	C235.188431,100.534393 239.897949,92.676697 238.891510,84.781708 
	C237.931000,77.246956 230.985779,71.074013 222.931244,71.042397 
	C198.454483,70.946327 173.977127,71.001488 148.500000,70.997765 
M154.478745,17.109665 
	C153.562729,15.932490 152.700760,14.708192 151.722183,13.585544 
	C143.333771,3.962220 132.789963,1.026865 120.658646,4.229223 
	C109.146912,7.268030 100.436417,17.584259 99.253494,29.194162 
	C97.950874,41.979004 102.793556,52.042175 113.710732,58.765160 
	C125.516426,66.035309 140.281113,63.955521 150.373688,54.072704 
	C159.872864,44.770958 161.645187,30.409893 154.478745,17.109665 
M111.003479,107.487823 
	C111.003479,105.654732 111.003609,103.821640 111.003464,101.988548 
	C111.002693,92.078949 109.946320,90.997231 100.255936,90.996811 
	C79.258636,90.995888 58.261311,90.978050 37.264088,91.016891 
	C34.214512,91.022530 31.127457,90.759544 31.176304,86.945015 
	C31.225090,83.135101 34.358387,82.928596 37.377377,82.983353 
	C40.707561,83.043770 44.248180,83.626366 47.302803,82.692154 
	C49.511948,82.016525 52.200943,79.437050 52.577194,77.331581 
	C52.882439,75.623466 50.177845,71.731804 48.612991,71.623299 
	C42.223251,71.180252 35.527737,70.847290 29.381269,72.308960 
	C22.076815,74.046021 17.903109,82.440277 19.156279,89.692108 
	C20.427357,97.047592 27.261656,102.922585 35.061382,102.960991 
	C54.891674,103.058647 74.722740,102.994888 94.553482,103.013649 
	C95.985100,103.014999 97.416588,103.160988 99.017616,103.249054 
	C99.017616,107.936317 98.937195,112.255363 99.042168,116.569908 
	C99.131859,120.256119 101.115761,122.724541 104.804199,122.836578 
	C108.826546,122.958763 110.773544,120.322281 110.964050,116.462120 
	C111.095337,113.802101 110.998413,111.130806 111.003479,107.487823 
M158.713547,137.499725 
	C158.713547,126.073891 158.713547,114.648064 158.713547,102.998940 
	C161.055298,102.998940 162.699463,103.034729 164.341599,102.991707 
	C168.085266,102.893616 170.511688,100.881653 170.596481,97.247169 
	C170.685806,93.419044 168.398621,91.094215 164.359161,91.017082 
	C161.030151,90.953514 157.697723,90.929924 154.369324,91.002609 
	C148.846115,91.123215 146.855057,93.029137 146.841141,98.596169 
	C146.783646,121.574738 146.791794,144.553574 146.836548,167.532211 
	C146.846527,172.654694 148.886169,175.237701 152.741058,175.075989 
	C157.588043,174.872681 158.563232,171.577591 158.560669,167.472366 
	C158.554672,157.814865 158.652649,148.157272 158.713547,137.499725 
M66.722603,72.390167 
	C64.173271,75.744034 64.156303,79.135300 66.914909,82.298286 
	C70.029724,85.869698 74.798698,85.989899 78.376923,82.791977 
	C81.382881,80.105492 81.605629,75.427666 78.888474,72.049141 
	C76.048302,68.517624 71.557190,68.393730 66.722603,72.390167 
M195.139664,92.456055 
	C190.865265,88.534660 186.477798,88.050011 183.457504,91.388382 
	C180.641769,94.500595 179.655289,98.116539 182.468231,101.694557 
	C185.074860,105.010162 188.521194,106.231773 192.530731,104.044220 
	C196.785461,101.722916 197.639618,98.492699 195.139664,92.456055 
M110.867325,146.374298 
	C113.847778,141.150482 112.910583,136.380127 108.464661,134.144577 
	C104.225906,132.013184 99.715210,133.530472 97.697014,137.924545 
	C96.152039,141.288315 96.686890,144.457947 99.524055,146.901749 
	C103.035866,149.926666 106.702728,149.796585 110.867325,146.374298 
M145.811401,189.666122 
	C144.221268,195.238693 145.669357,198.848541 150.197021,200.598740 
	C153.686676,201.947678 158.181442,200.205887 159.960510,196.815231 
	C161.705872,193.488831 160.519409,188.833771 157.378708,186.685440 
	C153.521973,184.047287 149.736954,184.837418 145.811401,189.666122 
z"/>
<path fill="#FFF" opacity="1.000000" stroke="none" 
	d="
M146.493927,226.077148 
	C146.559006,222.598129 146.448105,219.586243 146.734421,216.612595 
	C147.078354,213.040634 149.559586,211.219772 152.878250,211.383194 
	C156.180954,211.545822 158.454712,213.470566 158.451035,217.175003 
	C158.444092,224.172409 158.747070,231.189789 158.325912,238.162903 
	C157.515121,251.586914 144.742676,258.914215 132.785217,252.828033 
	C130.017151,251.419144 128.214462,251.159119 125.293488,252.716858 
	C113.212440,259.159546 99.174400,250.759567 99.050240,237.067520 
	C98.838692,213.738434 98.946732,190.406586 98.785034,167.076828 
	C98.755203,162.773087 100.181541,159.840225 104.609367,159.316299 
	C108.333237,158.875687 110.802910,162.101273 110.825226,167.251953 
	C110.921280,189.415741 110.941689,211.579849 111.016891,233.743744 
	C111.022507,235.397888 110.651672,237.508072 111.496902,238.601532 
	C112.878036,240.388306 115.227829,242.750443 116.964088,242.594116 
	C119.006714,242.410202 121.180786,240.061005 122.614975,238.140732 
	C123.440155,237.035873 122.984833,234.921936 122.985832,233.262146 
	C123.001053,207.931824 122.994270,182.601501 123.001823,157.271179 
	C123.002274,155.773956 122.500824,153.823792 123.243118,152.873489 
	C124.807793,150.870361 127.044579,148.066238 129.002518,148.068665 
	C130.966583,148.071091 133.202469,150.871490 134.768311,152.875946 
	C135.509338,153.824539 134.998260,155.776947 134.998657,157.274567 
	C135.005508,182.604889 135.002289,207.935226 135.006851,233.265549 
	C135.007126,234.764603 134.468918,236.711121 135.201492,237.669937 
	C136.746643,239.692261 138.761154,242.217880 140.963455,242.665466 
	C143.945633,243.271576 146.236694,240.944946 146.378250,237.555740 
	C146.531128,233.895676 146.464691,230.226456 146.493927,226.077148 
z"/>
<path fill="#FFF" opacity="1.000000" stroke="none" 
	d="
M149.000000,70.997765 
	C173.977127,71.001488 198.454483,70.946327 222.931244,71.042397 
	C230.985779,71.074013 237.931000,77.246956 238.891510,84.781708 
	C239.897949,92.676697 235.188431,100.534393 227.239807,102.157768 
	C221.649429,103.299507 215.639816,103.152718 209.934586,102.521698 
	C208.123245,102.321365 205.342285,98.626884 205.459991,96.679756 
	C205.578674,94.716171 208.441391,92.201668 210.662506,91.280891 
	C212.944473,90.334869 215.909332,91.116867 218.566299,90.974113 
	C221.832001,90.798653 226.611969,92.277214 226.740891,87.113617 
	C226.872147,81.856812 222.091461,83.036369 218.804428,83.032333 
	C180.506897,82.985321 142.209305,83.002281 103.911720,83.002075 
	C102.579643,83.002068 101.246719,83.029755 99.915642,82.992668 
	C96.093231,82.886154 93.257957,81.206833 93.173820,77.182953 
	C93.083641,72.870094 95.996529,71.025208 100.045303,71.015327 
	C116.196793,70.975899 132.348419,70.998268 149.000000,70.997765 
z"/>
<path fill="#050505" opacity="1.000000" stroke="none" 
	d="
M154.668045,17.425764 
	C161.645187,30.409893 159.872864,44.770958 150.373688,54.072704 
	C140.281113,63.955521 125.516426,66.035309 113.710732,58.765160 
	C102.793556,52.042175 97.950874,41.979004 99.253494,29.194162 
	C100.436417,17.584259 109.146912,7.268030 120.658646,4.229223 
	C132.789963,1.026865 143.333771,3.962220 151.722183,13.585544 
	C152.700760,14.708192 153.562729,15.932490 154.668045,17.425764 
M111.882202,27.737551 
	C109.489868,35.473488 111.785789,41.994213 117.789398,46.916580 
	C123.678566,51.745113 130.472763,52.593094 137.342697,48.801029 
	C144.060425,45.092991 147.328171,39.268726 146.928619,31.559071 
	C146.536819,23.999269 139.977356,16.698694 132.371277,15.193448 
	C124.068375,13.550300 116.325142,18.048008 111.882202,27.737551 
z"/>
<path fill="#FFF" opacity="1.000000" stroke="none" 
	d="
M111.003479,107.976189 
	C110.998413,111.130806 111.095337,113.802101 110.964050,116.462120 
	C110.773544,120.322281 108.826546,122.958763 104.804199,122.836578 
	C101.115761,122.724541 99.131859,120.256119 99.042168,116.569908 
	C98.937195,112.255363 99.017616,107.936317 99.017616,103.249054 
	C97.416588,103.160988 95.985100,103.014999 94.553482,103.013649 
	C74.722740,102.994888 54.891674,103.058647 35.061382,102.960991 
	C27.261656,102.922585 20.427357,97.047592 19.156279,89.692108 
	C17.903109,82.440277 22.076815,74.046021 29.381269,72.308960 
	C35.527737,70.847290 42.223251,71.180252 48.612991,71.623299 
	C50.177845,71.731804 52.882439,75.623466 52.577194,77.331581 
	C52.200943,79.437050 49.511948,82.016525 47.302803,82.692154 
	C44.248180,83.626366 40.707561,83.043770 37.377377,82.983353 
	C34.358387,82.928596 31.225090,83.135101 31.176304,86.945015 
	C31.127457,90.759544 34.214512,91.022530 37.264088,91.016891 
	C58.261311,90.978050 79.258636,90.995888 100.255936,90.996811 
	C109.946320,90.997231 111.002693,92.078949 111.003464,101.988548 
	C111.003609,103.821640 111.003479,105.654732 111.003479,107.976189 
z"/>
<path fill="#FFF" opacity="1.000000" stroke="none" 
	d="
M158.711060,137.999725 
	C158.652649,148.157272 158.554672,157.814865 158.560669,167.472366 
	C158.563232,171.577591 157.588043,174.872681 152.741058,175.075989 
	C148.886169,175.237701 146.846527,172.654694 146.836548,167.532211 
	C146.791794,144.553574 146.783646,121.574738 146.841141,98.596169 
	C146.855057,93.029137 148.846115,91.123215 154.369324,91.002609 
	C157.697723,90.929924 161.030151,90.953514 164.359161,91.017082 
	C168.398621,91.094215 170.685806,93.419044 170.596481,97.247169 
	C170.511688,100.881653 168.085266,102.893616 164.341599,102.991707 
	C162.699463,103.034729 161.055298,102.998940 158.713547,102.998940 
	C158.713547,114.648064 158.713547,126.073891 158.711060,137.999725 
z"/>
<path fill="#E9FF47" opacity="1.000000" stroke="none" 
	d="
M66.922722,72.057365 
	C71.557190,68.393730 76.048302,68.517624 78.888474,72.049141 
	C81.605629,75.427666 81.382881,80.105492 78.376923,82.791977 
	C74.798698,85.989899 70.029724,85.869698 66.914909,82.298286 
	C64.156303,79.135300 64.173271,75.744034 66.922722,72.057365 
z"/>
<path fill="#E9FF47" opacity="1.000000" stroke="none" 
	d="
M195.344299,92.778656 
	C197.639618,98.492699 196.785461,101.722916 192.530731,104.044220 
	C188.521194,106.231773 185.074860,105.010162 182.468231,101.694557 
	C179.655289,98.116539 180.641769,94.500595 183.457504,91.388382 
	C186.477798,88.050011 190.865265,88.534660 195.344299,92.778656 
z"/>
<path fill="#E9FF47" opacity="1.000000" stroke="none" 
	d="
M110.574173,146.623489 
	C106.702728,149.796585 103.035866,149.926666 99.524055,146.901749 
	C96.686890,144.457947 96.152039,141.288315 97.697014,137.924545 
	C99.715210,133.530472 104.225906,132.013184 108.464661,134.144577 
	C112.910583,136.380127 113.847778,141.150482 110.574173,146.623489 
z"/>
<path fill="#E9FF47" opacity="1.000000" stroke="none" 
	d="
M146.027435,189.338013 
	C149.736954,184.837418 153.521973,184.047287 157.378708,186.685440 
	C160.519409,188.833771 161.705872,193.488831 159.960510,196.815231 
	C158.181442,200.205887 153.686676,201.947678 150.197021,200.598740 
	C145.669357,198.848541 144.221268,195.238693 146.027435,189.338013 
z"/>
<path fill="#FBFBFB" opacity="1.000000" stroke="none" 
	d="
M111.992699,27.351925 
	C116.325142,18.048008 124.068375,13.550300 132.371277,15.193448 
	C139.977356,16.698694 146.536819,23.999269 146.928619,31.559071 
	C147.328171,39.268726 144.060425,45.092991 137.342697,48.801029 
	C130.472763,52.593094 123.678566,51.745113 117.789398,46.916580 
	C111.785789,41.994213 109.489868,35.473488 111.992699,27.351925 
z"/>
</svg>