<?xml version="1.0" encoding="utf-8"?>
<!-- Generator: Adobe Illustrator 24.0.0, SVG Export Plug-In . SVG Version: 6.00 Build 0)  -->
<svg version="1.1" xmlns="http://www.w3.org/2000/svg" xmlns:xlink="http://www.w3.org/1999/xlink" x="0px" y="0px"
	 viewBox="0 0 256 256" enable-background="new 0 0 256 256" xml:space="preserve">
<g id="Layer_1">
</g>
<g id="Layer_2">
</g>
<g id="Layer_3">
</g>
<g id="Layer_4">
</g>
<g id="Layer_5">
</g>
<g id="Layer_6">
</g>
<g id="Layer_7">
</g>
<g id="Layer_8">
</g>
<g id="Layer_9">
</g>
<g id="Layer_10">
</g>
<g id="Layer_11">
</g>
<g id="Layer_12">
</g>
<g id="Layer_13">
</g>
<g id="Layer_14">
</g>
<g id="Layer_15">
</g>
<g id="Layer_16">
</g>
<g id="Layer_17">
</g>
<g id="Layer_18">
</g>
<g id="Layer_19">
</g>
<g id="Layer_20">
</g>
<g id="Layer_21">
</g>
<g id="Layer_22">
</g>
<g id="Layer_23">
</g>
<g id="Layer_24">
</g>
<g id="Layer_25">
</g>
<g id="Layer_26">
</g>
<g id="Layer_27">
</g>
<g id="Layer_28">
</g>
<g id="Layer_29">
</g>
<g id="Layer_30">
</g>
<g id="Layer_31">
</g>
<g id="Layer_32">
</g>
<g id="Layer_33">
</g>
<g id="Layer_34">
</g>
<g id="Layer_35">
</g>
<g id="Layer_36">
</g>
<g id="Layer_37">
</g>
<g id="Layer_38">
</g>
<g id="Layer_39">
</g>
<g id="Layer_40">
	<g>
		<g>
			<g>
				<path fill="#FFF" d="M162.716,38.594c0-7.764,3.573-14.692,9.161-19.236c-0.625-0.655-1.269-1.294-1.955-1.888L152.652,2.5
					c-0.487,0.238-34.758,3.964-45.619,39.031v0l4.552,3.946c3.377,2.927,4.792,7.529,3.644,11.853l-28.21,99.16
					c1.395,1.024,2.328,2.591,2.526,4.359c2.417,21.564,17.115,28.449,34.291,21.278c0.051-0.204,0.112-0.429,0.168-0.646
					L124,181.48c0.935-3.569,2.347-7.472,4.201-10.663c1.254-2.16,3.375-3.343,5.572-3.534l40.811-107.534
					C167.467,55.394,162.716,47.549,162.716,38.594z"/>
			</g>
		</g>
		<g>
			<g>
				<path fill="#FFF" d="M159.936,46.846c-2.602-1.431-5.458-1.501-7.897-0.552c-1.208,0.47-2.577,0.012-3.26-1.09
					c-1.378-2.226-3.702-3.887-6.641-4.309c-3.921-0.563-7.865,1.565-9.583,5.135c-2.077,4.315-0.552,9.199,3.081,11.698
					c1.015,0.698,1.481,1.957,1.09,3.125l-28.957,83.841l15.648,4.849l28.838-83.497c0.391-1.169,1.519-1.894,2.751-1.841
					c4.405,0.189,8.562-2.796,9.498-7.492C165.277,52.827,163.407,48.755,159.936,46.846z"/>
			</g>
		</g>
		<g>
			<g>
				<path fill="#FFF" d="M148.996,16.828c-3.086-3.661-8.167-4.27-11.934-1.979c-1.053,0.64-2.391,0.55-3.297-0.285l-3.739-3.445
					c-4.243,2.689-8.553,6.22-12.427,10.815l5.071,4.672c0.906,0.835,1.106,2.162,0.554,3.263
					c-1.976,3.942-0.954,8.956,2.947,11.733c3.227,2.298,7.709,2.259,10.871-0.127c2.37-1.788,3.604-4.365,3.737-6.979
					c0.066-1.295,1.044-2.356,2.329-2.528c2.595-0.346,5.062-1.786,6.651-4.294C151.877,24.326,151.55,19.857,148.996,16.828z"/>
			</g>
		</g>
		<g>
			<g>
				<path fill="#727272" d="M91.784,139.74l-4.766,16.751c1.395,1.024,2.328,2.591,2.526,4.359
					c2.417,21.564,17.115,28.449,34.291,21.278c0.051-0.204,0.112-0.429,0.168-0.646L124,181.48
					c0.935-3.569,2.347-7.472,4.201-10.663c1.254-2.16,3.375-3.343,5.572-3.534l4.934-13.001L91.784,139.74z"/>
			</g>
		</g>
		<g>
			<g>
				<path d="M113.223,43.589l-4.553-3.946c-1.044-0.905-2.622-0.792-3.526,0.251c-0.905,1.043-0.792,2.623,0.251,3.527l4.553,3.946
					c2.637,2.285,3.761,5.945,2.877,9.28L84.829,155.05c-0.378,1.328,0.393,2.711,1.72,3.089c0.229,0.065,0.459,0.096,0.686,0.096
					c1.089,0,2.091-0.717,2.403-1.816l28.007-98.446C119.027,52.762,117.292,47.116,113.223,43.589z"/>
			</g>
		</g>
		<g>
			<g>
				<path d="M172.894,16.805c-0.433-0.42-0.878-0.829-1.334-1.225l-17.271-14.97c-1.045-0.904-2.623-0.792-3.526,0.251
					c-0.904,1.043-0.792,2.623,0.251,3.527l17.271,14.97c0.386,0.333,0.761,0.678,1.125,1.032c0.485,0.472,1.114,0.707,1.742,0.707
					c0.651,0,1.303-0.253,1.793-0.758C173.906,19.35,173.884,17.768,172.894,16.805z"/>
			</g>
		</g>
		<g>
			<g>
				<path d="M175.243,58.011c-1.292-0.491-2.734,0.159-3.224,1.45l-40.379,106.396c-0.49,1.291,0.159,2.735,1.45,3.225
					c0.292,0.111,0.592,0.163,0.887,0.163c1.008,0,1.958-0.615,2.337-1.613l40.379-106.396
					C177.184,59.945,176.534,58.501,175.243,58.011z"/>
			</g>
		</g>
		<g>
			<g>
				<g>
					<path fill="#FFF" d="M131.99,225.961c-29.781-18.266-63.394-35.278-71.606-39.381c-0.439,0.345-0.9,0.667-1.395,0.942
						l-3.166,1.764c-3.565,2.264-5.692,6.224-5.611,10.446c0.084,4.397,2.795,8.316,6.88,9.945l97.779,38.991
						c27.41,10.93,42.246,0.628,47.575-4.621c0.956-0.942,1.725-2.043,2.291-3.234C192.322,245.254,164.722,246.037,131.99,225.961z
						"/>
				</g>
			</g>
			<g>
				<g>
					<path fill="#FFF" d="M60.383,186.579c-0.439,0.345-0.9,0.667-1.395,0.942l-3.166,1.764
						c-3.565,2.264-5.692,6.224-5.611,10.446c0.084,4.397,2.795,8.316,6.88,9.945l19.679,7.847l28.207-7.329
						C84.349,198.66,66.136,189.453,60.383,186.579z"/>
				</g>
			</g>
			<g>
				<g>
					<path fill="#FFF" d="M140.212,170.291c-2.978-4.291-9.387-3.991-12.01,0.525c-2.25,3.874-3.618,8.3-4.367,11.313
						c1.791-0.748,3.355-1.549,4.608-2.257c2.034-1.15,4.583-0.771,6.205,0.91l26.21,27.184c1.917,1.988,4.739,2.818,7.427,2.185
						c0.963-0.227,1.945-0.257,2.9-0.121C159.943,198.089,146.961,180.018,140.212,170.291z"/>
				</g>
			</g>
			<g>
				<g>
					<path fill="#FFF" d="M205.741,235.285c-0.172-1.717-0.73-3.108-1.338-4.16c-0.778-1.346-1.994-2.391-3.422-3.007
						c-10.345-4.465-21.036-12.487-26.031-16.472c-1.875-1.496-4.33-2.044-6.665-1.494c-2.688,0.633-5.51-0.198-7.427-2.185
						l-26.21-27.184c-1.622-1.682-4.171-2.061-6.205-0.91c-5.116,2.894-15.401,7.33-25.31,3.379
						c-10.237-4.082-12.898-16.236-13.589-22.4c-0.258-2.305-1.758-4.277-3.913-5.136c-2.166-0.864-4.624-0.444-6.407,1.057
						c-9.425,7.937-13.573,18.685-15.218,24.443c-0.612,2.142-1.895,4.004-3.624,5.364c8.213,4.103,41.825,21.115,71.606,39.381
						c32.733,20.077,60.332,19.293,72.749,14.852C205.551,239.102,205.933,237.203,205.741,235.285z"/>
				</g>
			</g>
			<g>
				<g>
					<path fill="#FFF" d="M205.741,235.285c-0.172-1.717-0.73-3.108-1.338-4.16c-0.778-1.346-1.994-2.391-3.422-3.007
						c-10.345-4.465-21.036-12.487-26.031-16.472c-1.875-1.496-4.33-2.044-6.665-1.494c-1.359,0.32-2.751,0.263-4.044-0.125
						c-1.961,4.995-8.364,16.084-27.108,18.933c30.462,16.972,55.845,16.059,67.605,11.853
						C205.551,239.102,205.933,237.203,205.741,235.285z"/>
				</g>
			</g>
			<g>
				<g>
					<path fill="#FFF" d="M205.741,235.285c-0.172-1.717-0.73-3.108-1.338-4.16c-0.778-1.346-1.994-2.391-3.422-3.007
						c-0.363-0.157-0.727-0.319-1.09-0.484c-1.608,2.645-5.056,6.013-12.173,5.866c-10.694-0.221-22.824-0.702-27.774,5.393
						c20.05,6.322,36.125,5.021,44.793,1.921C205.551,239.102,205.933,237.203,205.741,235.285z"/>
				</g>
			</g>
			<g>
				<g>
					<path fill="#FFF" d="M89.545,160.85c-0.258-2.305-1.758-4.277-3.913-5.136c-2.166-0.864-4.624-0.444-6.407,1.057
						c-1.005,0.847-1.938,1.73-2.827,2.631c1.605,5.955,6.536,15.964,21.67,20.73C91.956,174.752,90.104,165.84,89.545,160.85z"/>
				</g>
			</g>
			<g>
				<g>
					<path fill="#E8FF3F" d="M115.205,184.553c-2.563,0.354-5.272,0.378-8.01-0.133c12.372,17.055,4.169,23.485-2.116,25.831
						c7.181,4.016,14.651,8.313,21.99,12.723C136.889,210.65,120.882,190.87,115.205,184.553z"/>
				</g>
			</g>
			<g>
				<g>
					<path d="M205.813,238.555c-1.248-0.592-2.739-0.063-3.332,1.184c-0.455,0.957-1.057,1.807-1.787,2.527
						c-14.339,14.124-36.173,7.558-44.896,4.08l-97.779-38.991c-3.159-1.26-5.242-4.271-5.307-7.67
						c-0.063-3.306,1.619-6.461,4.395-8.252l3.1-1.727c0.57-0.317,1.134-0.697,1.724-1.161c1.085-0.854,1.272-2.425,0.419-3.511
						s-2.426-1.273-3.511-0.419c-0.38,0.299-0.729,0.536-1.065,0.723l-3.166,1.764c-0.042,0.023-0.083,0.048-0.124,0.074
						c-4.271,2.713-6.866,7.543-6.771,12.604c0.104,5.417,3.423,10.213,8.455,12.22l97.779,38.991c9.109,3.633,16.922,5,23.524,5
						c14.355,0,22.979-6.466,26.73-10.161c1.148-1.13,2.088-2.457,2.795-3.942C207.589,240.64,207.059,239.148,205.813,238.555z"/>
				</g>
			</g>
			<g>
				<g>
					<path d="M148.57,175.311c-0.799-1.126-2.361-1.391-3.485-0.592l-10.516,7.46c-1.126,0.799-1.392,2.359-0.593,3.486
						c0.487,0.687,1.259,1.053,2.041,1.053c0.5,0,1.006-0.149,1.444-0.461l10.516-7.46
						C149.104,177.998,149.369,176.437,148.57,175.311z"/>
				</g>
			</g>
			<g>
				<g>
					<path d="M166.122,197.931c-0.798-1.127-2.361-1.391-3.485-0.593l-7.736,5.488c-1.126,0.799-1.392,2.359-0.593,3.485
						c0.487,0.688,1.259,1.054,2.041,1.054c0.5,0,1.006-0.149,1.444-0.461l7.736-5.488
						C166.655,200.618,166.921,199.057,166.122,197.931z"/>
				</g>
			</g>
			<g>
				<g>
					<path d="M160.43,190.278c-0.798-1.126-2.361-1.392-3.485-0.592l-8.979,6.37c-1.126,0.799-1.392,2.359-0.593,3.486
						c0.487,0.687,1.259,1.053,2.041,1.053c0.5,0,1.006-0.149,1.444-0.461l8.979-6.37
						C160.963,192.965,161.229,191.405,160.43,190.278z"/>
				</g>
			</g>
			<g>
				<g>
					<path d="M154.506,182.791c-0.799-1.125-2.361-1.391-3.485-0.592l-9.759,6.923c-1.126,0.799-1.392,2.359-0.593,3.486
						c0.487,0.687,1.259,1.053,2.041,1.053c0.5,0,1.006-0.149,1.444-0.461l9.759-6.923
						C155.039,185.478,155.305,183.917,154.506,182.791z"/>
				</g>
			</g>
			<g>
				<g>
					<path d="M107.102,209.644c-0.348-1.336-1.708-2.141-3.049-1.791l-27.529,7.152c-1.336,0.347-2.138,1.712-1.791,3.048
						c0.293,1.126,1.307,1.872,2.418,1.872c0.208,0,0.42-0.026,0.631-0.081l27.529-7.152
						C106.646,212.345,107.448,210.98,107.102,209.644z"/>
				</g>
			</g>
			<g>
				<g>
					<path d="M172.657,207.946c-11.063-11.839-23.79-29.567-30.392-39.08c-1.88-2.709-4.996-4.25-8.259-4.114
						c-3.316,0.133-6.295,1.931-7.968,4.809c-2.266,3.902-3.675,8.292-4.458,11.287c-0.349,1.336,0.451,2.702,1.786,3.051
						c1.336,0.347,2.702-0.45,3.052-1.787c0.704-2.695,1.961-6.625,3.943-10.04c0.821-1.412,2.223-2.259,3.846-2.324
						c1.58-0.066,3.038,0.653,3.95,1.969c6.679,9.625,19.567,27.573,30.847,39.644c0.492,0.527,1.158,0.793,1.827,0.793
						c0.611,0,1.224-0.223,1.706-0.673C173.547,210.537,173.601,208.955,172.657,207.946z"/>
				</g>
			</g>
			<g>
				<g>
					<g>
						<g>
							<path d="M208.229,235.036c-0.184-1.838-0.743-3.575-1.661-5.162c-1.028-1.778-2.66-3.217-4.596-4.051
								c-9.94-4.291-20.219-11.948-25.462-16.131c-2.486-1.984-5.694-2.702-8.798-1.973c-1.82,0.429-3.756-0.142-5.054-1.487
								l-26.21-27.184c-2.418-2.506-6.216-3.061-9.235-1.351c-4.827,2.73-14.254,6.781-23.153,3.232
								c-8.878-3.54-11.348-14.273-12.03-20.357c-0.362-3.227-2.459-5.978-5.471-7.179c-3.017-1.203-6.44-0.641-8.943,1.467
								c-9.944,8.375-14.3,19.677-16.012,25.669c-0.46,1.611-1.416,3.024-2.766,4.085c-0.673,0.529-1.028,1.367-0.941,2.218
								c0.087,0.852,0.604,1.6,1.37,1.983c9.339,4.666,42.088,21.289,71.416,39.276c21.517,13.198,41.476,17.838,56.679,17.838
								c7.28,0,13.471-1.064,18.219-2.762c0.623-0.223,1.133-0.684,1.416-1.281C208.033,239.703,208.459,237.334,208.229,235.036z
								 M202.862,238.797c-6.042,1.836-32.529,7.748-69.566-14.968c-26.902-16.501-56.644-31.847-68.788-37.977
								c0.853-1.192,1.496-2.522,1.904-3.951c1.555-5.444,5.495-15.699,14.424-23.218c1.089-0.917,2.57-1.166,3.87-0.647
								c1.296,0.517,2.198,1.702,2.354,3.092c0.807,7.195,3.848,19.938,15.147,24.444c10.837,4.322,21.859-0.354,27.467-3.525
								c1.036-0.585,2.341-0.394,3.174,0.47l26.21,27.184c2.517,2.61,6.271,3.714,9.8,2.884c1.601-0.379,3.253-0.007,4.533,1.014
								c5.438,4.339,16.124,12.292,26.6,16.813c0.956,0.412,1.754,1.109,2.248,1.964c0.561,0.969,0.901,2.031,1.015,3.157
								C203.361,236.609,203.227,237.721,202.862,238.797z"/>
						</g>
					</g>
				</g>
			</g>
			<g>
				<g>
					<path d="M165.026,208.15c-1.272-0.531-2.738,0.073-3.269,1.348c-2.173,5.226-8.283,14.377-24.784,16.957
						c-1.364,0.213-2.298,1.492-2.084,2.856c0.192,1.233,1.256,2.114,2.467,2.114c0.128,0,0.258-0.01,0.389-0.03
						c6.535-1.022,22.406-5.013,28.63-19.977C166.905,210.143,166.302,208.68,165.026,208.15z"/>
				</g>
			</g>
			<g>
				<g>
					<path d="M201.096,225.756c-1.162-0.743-2.708-0.404-3.453,0.76c-1.963,3.071-5.279,4.584-9.872,4.484l-1.11-0.023
						c-10.629-0.226-22.665-0.484-28.349,5.977c-0.912,1.037-0.811,2.617,0.226,3.528c0.475,0.418,1.063,0.623,1.65,0.623
						c0.693,0,1.384-0.287,1.878-0.849c4.147-4.716,14.951-4.486,24.488-4.28l1.113,0.023c8.429,0.167,12.52-4.179,14.188-6.79
						C202.599,228.045,202.259,226.5,201.096,225.756z"/>
				</g>
			</g>
			<g>
				<g>
					<path d="M98.522,177.653c-12.902-4.164-17.752-12.263-19.547-18.325c-0.393-1.324-1.789-2.081-3.107-1.687
						c-1.324,0.392-2.079,1.783-1.688,3.107c1.75,5.907,7.04,16.576,22.807,21.664c0.255,0.082,0.514,0.121,0.769,0.121
						c1.056,0,2.036-0.674,2.378-1.733C100.558,179.486,99.837,178.078,98.522,177.653z"/>
				</g>
			</g>
			<g>
				<g>
					<path d="M117.458,183.323c-0.915-1.034-2.496-1.127-3.529-0.213c-1.033,0.916-1.129,2.496-0.213,3.529
						c4.723,5.328,19.526,23.55,11.747,34.317c-0.809,1.119-0.557,2.682,0.563,3.49c0.442,0.32,0.954,0.474,1.462,0.474
						c0.775,0,1.54-0.359,2.028-1.036C139.199,210.48,124.31,191.053,117.458,183.323z"/>
				</g>
			</g>
			<g>
				<g>
					<path d="M109.539,183.397c-0.802-1.124-2.362-1.387-3.487-0.584c-1.124,0.801-1.386,2.362-0.585,3.487
						c4.588,6.437,6.436,11.831,5.344,15.599c-0.725,2.5-2.772,4.454-6.087,5.807c-1.278,0.522-1.892,1.981-1.369,3.26
						c0.396,0.969,1.33,1.555,2.315,1.555c0.314,0,0.635-0.06,0.944-0.186c4.732-1.933,7.844-5.06,8.998-9.045
						C117.167,197.926,115.123,191.233,109.539,183.397z"/>
				</g>
			</g>
		</g>
		<g>
			<g>
				<path d="M138.563,151.619l-45.56-14.12c-1.322-0.408-2.72,0.329-3.128,1.648c-0.409,1.319,0.329,2.719,1.647,3.128l45.56,14.12
					c0.247,0.076,0.496,0.112,0.741,0.112c1.066,0,2.055-0.688,2.387-1.76C140.619,153.429,139.881,152.028,138.563,151.619z"/>
			</g>
		</g>
		<g>
			<g>
				<path fill="#E8FF3F" d="M189.227,180.025c-4.5-0.8-8-4.3-8.9-8.7c0-0.2-0.4-0.2-0.4,0c-0.9,4.4-4.4,7.9-8.9,8.7
					c-0.2,0-0.2,0.3,0,0.4c4.5,0.8,8,4.3,8.9,8.7c0,0.2,0.4,0.2,0.4,0c0.9-4.4,4.4-7.9,8.9-8.7
					C189.427,180.325,189.427,180.025,189.227,180.025z"/>
			</g>
		</g>
		<g>
			<g>
				<path fill="#E8FF3F" d="M69.262,140.935c-3.437-0.611-6.111-3.284-6.798-6.645c0-0.153-0.306-0.153-0.306,0
					c-0.688,3.361-3.361,6.034-6.798,6.645c-0.153,0-0.153,0.229,0,0.306c3.437,0.611,6.11,3.284,6.798,6.645
					c0,0.153,0.306,0.153,0.306,0c0.687-3.361,3.361-6.034,6.798-6.645C69.415,141.164,69.415,140.935,69.262,140.935z"/>
			</g>
		</g>
		<g>
			<g>
				<path fill="#E8FF3F" d="M92.514,17.35h-2.3v-2.3c0-1.8-1.4-3.2-3.2-3.2c-1.8,0-3.2,1.5-3.2,3.2v2.3h-2.3c-1.8,0-3.2,1.4-3.2,3.2
					c0,1.8,1.5,3.2,3.2,3.2h2.3v2.3c0,1.8,1.4,3.2,3.2,3.2c1.8,0,3.2-1.5,3.2-3.2v-2.3h2.3c1.8,0,3.2-1.4,3.2-3.2
					C95.714,18.75,94.214,17.35,92.514,17.35z"/>
			</g>
		</g>
		<g>
			<g>
				<path fill="#E8FF3F" d="M72.127,38.15c-1.878,0-3.4,1.522-3.4,3.4c0,1.878,1.522,3.4,3.4,3.4s3.4-1.522,3.4-3.4
					C75.527,39.672,74.004,38.15,72.127,38.15z"/>
			</g>
		</g>
		<g>
			<g>
				<circle fill="#E8FF3F" cx="159.914" cy="160.225" r="3.4"/>
			</g>
		</g>
		<g>
			<g>
				<circle fill="#E8FF3F" cx="187.5" cy="38.594" r="24.784"/>
			</g>
		</g>
		<g>
			<g>
				<circle fill="#E8FF3F" cx="187.5" cy="38.594" r="13.956"/>
			</g>
		</g>
		<g>
			<g>
				<g>
					<g>
						<path d="M187.5,0c-21.28,0-38.594,17.313-38.594,38.594S166.22,77.188,187.5,77.188s38.594-17.313,38.594-38.594
							S208.78,0,187.5,0z M187.5,72.188c-18.523,0-33.594-15.07-33.594-33.594S168.977,5,187.5,5s33.594,15.07,33.594,33.594
							S206.023,72.188,187.5,72.188z"/>
					</g>
				</g>
			</g>
		</g>
		<g>
			<g>
				<g>
					<g>
						<path d="M187.5,11.31c-15.045,0-27.284,12.24-27.284,27.284s12.239,27.284,27.284,27.284s27.284-12.24,27.284-27.284
							S202.545,11.31,187.5,11.31z M187.5,60.878c-12.287,0-22.284-9.997-22.284-22.284S175.213,16.31,187.5,16.31
							s22.284,9.997,22.284,22.284S199.787,60.878,187.5,60.878z"/>
					</g>
				</g>
			</g>
		</g>
		<g>
			<g>
				<g>
					<g>
						<path d="M187.5,22.138c-9.074,0-16.456,7.382-16.456,16.456S178.426,55.05,187.5,55.05s16.456-7.382,16.456-16.456
							S196.574,22.138,187.5,22.138z M187.5,50.05c-6.316,0-11.456-5.139-11.456-11.456s5.14-11.456,11.456-11.456
							s11.456,5.139,11.456,11.456S193.816,50.05,187.5,50.05z"/>
					</g>
				</g>
			</g>
		</g>
		<g>
			<g>
				<path d="M161.141,44.656c-3.103-1.706-6.751-1.959-10.008-0.692c-0.085,0.035-0.179,0.003-0.229-0.077
					c-1.841-2.971-4.906-4.963-8.41-5.467c-4.983-0.713-9.997,1.967-12.192,6.525c-2.545,5.288-0.897,11.53,3.916,14.841
					c0.093,0.063,0.171,0.173,0.145,0.25l-28.66,82.981c-0.45,1.305,0.242,2.728,1.547,3.179c1.309,0.454,2.729-0.241,3.18-1.547
					l28.668-83.005c0.742-2.222-0.078-4.624-2.044-5.978c-2.77-1.905-3.714-5.503-2.245-8.554c1.258-2.614,4.124-4.154,6.976-3.745
					c2.065,0.297,3.796,1.416,4.87,3.149c1.313,2.127,3.962,3.012,6.292,2.105c1.901-0.739,3.955-0.593,5.786,0.413
					c2.521,1.386,3.887,4.342,3.319,7.187c-0.662,3.321-3.597,5.612-6.938,5.483c-2.391-0.111-4.485,1.322-5.222,3.523
					l-28.609,82.836c-0.45,1.305,0.242,2.728,1.547,3.179c0.271,0.093,0.546,0.137,0.816,0.137c1.037,0,2.006-0.649,2.363-1.685
					l28.616-82.858c0.035-0.102,0.153-0.133,0.273-0.138c5.828,0.269,10.91-3.745,12.058-9.501
					C167.943,52.24,165.553,47.082,161.141,44.656z"/>
			</g>
		</g>
		<g>
			<g>
				<path d="M150.907,15.216c-3.781-4.487-10.153-5.539-15.145-2.503c-0.095,0.059-0.228,0.083-0.304,0.012L131.72,9.28
					c-1.019-0.936-2.598-0.87-3.533,0.145c-0.936,1.016-0.87,2.597,0.145,3.533l3.739,3.444c1.725,1.589,4.253,1.825,6.291,0.583
					c2.873-1.749,6.541-1.134,8.724,1.455c1.869,2.218,2.101,5.465,0.561,7.896c-1.117,1.764-2.847,2.884-4.869,3.154
					c-2.478,0.33-4.368,2.381-4.496,4.878c-0.104,2.038-1.078,3.853-2.745,5.11c-2.296,1.733-5.551,1.77-7.916,0.086
					c-2.759-1.964-3.668-5.571-2.162-8.575c1.07-2.133,0.631-4.634-1.094-6.223l-5.07-4.672c-1.017-0.936-2.598-0.871-3.533,0.145
					c-0.936,1.015-0.87,2.597,0.145,3.532l5.07,4.672c0.078,0.072,0.063,0.205,0.013,0.305c-2.618,5.225-1.048,11.487,3.732,14.89
					c2.021,1.438,4.416,2.154,6.807,2.154c2.487,0,4.971-0.776,7.021-2.322c2.827-2.132,4.55-5.357,4.728-8.847
					c0.004-0.092,0.071-0.165,0.163-0.177c3.464-0.462,6.537-2.443,8.433-5.435C154.563,24.756,154.168,19.084,150.907,15.216z"/>
			</g>
		</g>
	</g>
</g>
<g id="Layer_41">
</g>
<g id="Layer_42">
</g>
<g id="Layer_43">
</g>
<g id="Layer_44">
</g>
<g id="Layer_45">
</g>
<g id="Layer_46">
</g>
<g id="Layer_47">
</g>
<g id="Layer_48">
</g>
<g id="Layer_49">
</g>
<g id="Layer_50">
</g>
<g id="Layer_51">
</g>
<g id="Layer_52">
</g>
<g id="Layer_53">
</g>
<g id="Layer_54">
</g>
<g id="Layer_55">
</g>
<g id="Layer_56">
</g>
<g id="Layer_57">
</g>
<g id="Layer_58">
</g>
<g id="Layer_59">
</g>
<g id="Layer_60">
</g>
<g id="Layer_61">
</g>
<g id="Layer_62">
</g>
<g id="Layer_63">
</g>
<g id="Layer_64">
</g>
<g id="Layer_65">
</g>
<g id="Layer_66">
</g>
<g id="Layer_67">
</g>
<g id="Layer_68">
</g>
<g id="Layer_69">
</g>
<g id="Layer_70">
</g>
<g id="Layer_71">
</g>
<g id="Layer_72">
</g>
<g id="Layer_73">
</g>
<g id="Layer_74">
</g>
<g id="Layer_75">
</g>
</svg>
