<svg version="1.1" id="Layer_1" xmlns="http://www.w3.org/2000/svg" xmlns:xlink="http://www.w3.org/1999/xlink" x="0px" y="0px"
	 width="100%" viewBox="0 0 265 256" enable-background="new 0 0 265 256" xml:space="preserve">
<path fill="#000" opacity="1.000000" stroke="none" 
	d="
M148.000000,257.000000 
	C98.666664,257.000000 49.833332,257.000000 1.000000,257.000000 
	C1.000000,171.666672 1.000000,86.333336 1.000000,1.000000 
	C89.333336,1.000000 177.666672,1.000000 266.000000,1.000000 
	C266.000000,86.333336 266.000000,171.666672 266.000000,257.000000 
	C226.833328,257.000000 187.666672,257.000000 148.000000,257.000000 
M178.681656,247.432281 
	C182.852325,245.204300 181.741989,241.613434 180.964142,238.206696 
	C179.002518,229.615540 177.056396,221.017639 174.861649,212.484802 
	C174.168533,209.790100 174.518509,208.145676 177.115784,206.861755 
	C186.506775,202.219376 193.192978,194.640259 199.090469,186.246033 
	C206.744873,175.351135 215.041611,164.844070 221.911591,153.474976 
	C235.387894,131.173035 221.443634,102.423920 196.534164,100.014397 
	C170.676270,97.513123 144.813400,95.059357 118.967804,92.436157 
	C82.909691,88.776443 47.161049,109.050529 37.156498,145.203964 
	C36.359390,148.084473 35.218578,150.868607 34.381516,153.739517 
	C27.726707,176.563751 20.783678,199.311234 14.608362,222.264999 
	C11.377399,234.274567 17.523315,243.630295 29.762005,247.638321 
	C39.395653,250.793228 49.369442,245.942627 54.294003,235.638779 
	C55.077675,233.999054 55.679325,232.255356 56.203457,230.511154 
	C63.045605,207.741623 69.852684,184.961563 76.691414,162.191025 
	C77.179794,160.564926 77.846397,158.992371 78.931641,156.022461 
	C79.924133,158.803619 80.533875,160.094162 80.846870,161.453049 
	C84.580124,177.661530 88.281769,193.877304 91.965500,210.097122 
	C94.396645,220.801697 96.746002,231.524994 99.215645,242.220581 
	C100.025414,245.727585 101.582962,248.641281 106.014160,247.712112 
	C110.310364,246.811264 111.003830,243.863922 110.110382,240.108871 
	C109.725746,238.492310 109.358299,236.871674 108.978386,235.253967 
	C102.134163,206.110245 95.291901,176.966064 88.440994,147.823914 
	C87.615158,144.310974 86.339294,140.071915 82.395782,140.330292 
	C78.639374,140.576431 74.831322,142.874756 71.471565,144.957428 
	C70.098534,145.808563 69.675072,148.414581 69.108124,150.308578 
	C63.386719,169.422180 57.735588,188.556778 52.041645,207.678619 
	C49.811932,215.166626 47.739422,222.711563 45.194958,230.092560 
	C43.124027,236.099930 37.813942,238.545700 32.012386,236.778717 
	C26.857910,235.208786 24.175615,230.401917 25.242414,224.468414 
	C25.565300,222.672562 26.094637,220.908905 26.604952,219.152435 
	C33.053074,196.958603 39.459789,174.752502 45.986477,152.581757 
	C55.634487,119.808052 80.162178,101.423782 114.417953,103.137253 
	C141.336746,104.483711 168.208252,107.287102 195.011566,110.250290 
	C212.856232,112.223068 222.603165,133.057358 212.744171,147.863235 
	C202.876755,162.681686 192.114807,176.910751 181.553558,191.257263 
	C178.139801,195.894516 173.548264,196.511169 168.756409,193.739075 
	C163.756546,190.846619 161.968384,186.275879 164.088730,181.044601 
	C164.951401,178.916245 166.257385,176.925156 167.598450,175.040054 
	C175.610703,163.777405 183.805679,152.643021 191.704208,141.301849 
	C195.897141,135.281403 194.313339,131.428726 187.027298,130.669403 
	C175.107697,129.427124 163.123795,128.747543 151.151596,128.129089 
	C149.546463,128.046173 147.053925,129.318909 146.415741,130.653885 
	C145.735977,132.075882 146.161484,134.862915 147.224792,136.052643 
	C148.349915,137.311508 150.755737,137.669449 152.669815,137.937210 
	C160.863449,139.083344 169.082047,140.051041 178.096222,141.185028 
	C176.801178,143.467377 175.995377,145.222366 174.896179,146.768814 
	C169.011169,155.048340 162.963425,163.213257 157.143814,171.537933 
	C150.588699,180.914658 151.086090,190.115204 157.777283,199.240799 
	C160.063721,202.359116 161.884979,206.101135 162.872711,209.834915 
	C165.593765,220.120667 167.683578,230.571671 170.187637,240.917465 
	C171.143524,244.866837 172.269699,249.025742 178.681656,247.432281 
M57.413914,76.135818 
	C76.187935,88.179192 100.307205,82.635506 109.951439,64.060349 
	C118.686684,47.235912 113.054237,26.400293 97.186661,16.840759 
	C80.562912,6.825663 59.410999,11.338429 48.594833,27.207842 
	C37.995628,42.758930 41.549721,63.752766 57.413914,76.135818 
M245.482498,199.036865 
	C246.499069,198.476379 247.874130,198.161514 248.460312,197.306091 
	C249.833603,195.302002 252.235001,192.555450 251.692795,190.978500 
	C250.457443,187.385773 247.090317,188.972000 244.460892,189.958633 
	C241.261368,191.159210 238.107452,192.481339 235.010193,193.720337 
	C233.512344,191.263306 232.602310,188.995316 231.018234,187.394196 
	C229.492020,185.851547 226.941910,183.689224 225.410492,184.072418 
	C219.394913,185.577774 213.508209,187.760803 207.813049,190.241760 
	C206.722763,190.716721 206.037201,193.862411 206.463852,195.420197 
	C206.716995,196.344498 209.625961,197.233047 211.137360,196.969772 
	C213.858337,196.495819 216.451035,195.204407 219.051849,194.143097 
	C222.012039,192.935120 223.932297,193.440659 225.384262,196.634705 
	C228.562088,203.625244 231.209808,204.596771 238.327103,201.954163 
	C240.502975,201.146286 242.629303,200.204910 245.482498,199.036865 
M216.364059,223.085709 
	C218.235687,223.561981 220.107315,224.038254 221.864090,224.485306 
	C221.679871,237.977310 223.876984,240.262589 237.311295,241.007675 
	C238.974808,241.099930 240.754517,241.553253 242.274796,241.119202 
	C243.983414,240.631348 245.458725,239.326340 247.035507,238.376831 
	C246.038055,236.747498 245.398819,234.550201 243.950043,233.636414 
	C242.241913,232.559082 239.832657,232.219574 237.727997,232.221481 
	C233.148758,232.225616 231.326630,230.726349 231.393600,225.687790 
	C231.432526,222.758987 229.490982,218.148132 227.214523,217.181503 
	C222.136276,215.025116 216.318512,214.413666 210.733154,213.791183 
	C209.396286,213.642197 207.256424,215.662354 206.539352,217.181976 
	C206.197632,217.906158 208.056259,220.255646 209.401596,221.044785 
	C211.207748,222.104309 213.481888,222.366028 216.364059,223.085709 
z"/>
<path fill="#FAFBFC" opacity="1.000000" stroke="none" 
	d="
M178.327362,247.592773 
	C172.269699,249.025742 171.143524,244.866837 170.187637,240.917465 
	C167.683578,230.571671 165.593765,220.120667 162.872711,209.834915 
	C161.884979,206.101135 160.063721,202.359116 157.777283,199.240799 
	C151.086090,190.115204 150.588699,180.914658 157.143814,171.537933 
	C162.963425,163.213257 169.011169,155.048340 174.896179,146.768814 
	C175.995377,145.222366 176.801178,143.467377 178.096222,141.185028 
	C169.082047,140.051041 160.863449,139.083344 152.669815,137.937210 
	C150.755737,137.669449 148.349915,137.311508 147.224792,136.052643 
	C146.161484,134.862915 145.735977,132.075882 146.415741,130.653885 
	C147.053925,129.318909 149.546463,128.046173 151.151596,128.129089 
	C163.123795,128.747543 175.107697,129.427124 187.027298,130.669403 
	C194.313339,131.428726 195.897141,135.281403 191.704208,141.301849 
	C183.805679,152.643021 175.610703,163.777405 167.598450,175.040054 
	C166.257385,176.925156 164.951401,178.916245 164.088730,181.044601 
	C161.968384,186.275879 163.756546,190.846619 168.756409,193.739075 
	C173.548264,196.511169 178.139801,195.894516 181.553558,191.257263 
	C192.114807,176.910751 202.876755,162.681686 212.744171,147.863235 
	C222.603165,133.057358 212.856232,112.223068 195.011566,110.250290 
	C168.208252,107.287102 141.336746,104.483711 114.417953,103.137253 
	C80.162178,101.423782 55.634487,119.808052 45.986477,152.581757 
	C39.459789,174.752502 33.053074,196.958603 26.604952,219.152435 
	C26.094637,220.908905 25.565300,222.672562 25.242414,224.468414 
	C24.175615,230.401917 26.857910,235.208786 32.012386,236.778717 
	C37.813942,238.545700 43.124027,236.099930 45.194958,230.092560 
	C47.739422,222.711563 49.811932,215.166626 52.041645,207.678619 
	C57.735588,188.556778 63.386719,169.422180 69.108124,150.308578 
	C69.675072,148.414581 70.098534,145.808563 71.471565,144.957428 
	C74.831322,142.874756 78.639374,140.576431 82.395782,140.330292 
	C86.339294,140.071915 87.615158,144.310974 88.440994,147.823914 
	C95.291901,176.966064 102.134163,206.110245 108.978386,235.253967 
	C109.358299,236.871674 109.725746,238.492310 110.110382,240.108871 
	C111.003830,243.863922 110.310364,246.811264 106.014160,247.712112 
	C101.582962,248.641281 100.025414,245.727585 99.215645,242.220581 
	C96.746002,231.524994 94.396645,220.801697 91.965500,210.097122 
	C88.281769,193.877304 84.580124,177.661530 80.846870,161.453049 
	C80.533875,160.094162 79.924133,158.803619 78.931641,156.022461 
	C77.846397,158.992371 77.179794,160.564926 76.691414,162.191025 
	C69.852684,184.961563 63.045605,207.741623 56.203457,230.511154 
	C55.679325,232.255356 55.077675,233.999054 54.294003,235.638779 
	C49.369442,245.942627 39.395653,250.793228 29.762005,247.638321 
	C17.523315,243.630295 11.377399,234.274567 14.608362,222.264999 
	C20.783678,199.311234 27.726707,176.563751 34.381516,153.739517 
	C35.218578,150.868607 36.359390,148.084473 37.156498,145.203964 
	C47.161049,109.050529 82.909691,88.776443 118.967804,92.436157 
	C144.813400,95.059357 170.676270,97.513123 196.534164,100.014397 
	C221.443634,102.423920 235.387894,131.173035 221.911591,153.474976 
	C215.041611,164.844070 206.744873,175.351135 199.090469,186.246033 
	C193.192978,194.640259 186.506775,202.219376 177.115784,206.861755 
	C174.518509,208.145676 174.168533,209.790100 174.861649,212.484802 
	C177.056396,221.017639 179.002518,229.615540 180.964142,238.206696 
	C181.741989,241.613434 182.852325,245.204300 178.327362,247.592773 
z"/>
<path fill="#FAFBFC" opacity="1.000000" stroke="none" 
	d="
M57.112328,75.937286 
	C41.549721,63.752766 37.995628,42.758930 48.594833,27.207842 
	C59.410999,11.338429 80.562912,6.825663 97.186661,16.840759 
	C113.054237,26.400293 118.686684,47.235912 109.951439,64.060349 
	C100.307205,82.635506 76.187935,88.179192 57.112328,75.937286 
M61.107685,65.409607 
	C70.691406,73.667274 82.195091,74.760941 91.775276,68.325195 
	C101.437447,61.834381 105.610382,49.724297 101.890121,38.971378 
	C98.187164,28.268482 87.710480,21.169722 76.390854,22.097752 
	C66.834259,22.881237 59.692421,27.706669 55.987228,36.603203 
	C51.729465,46.826496 53.151997,56.426884 61.107685,65.409607 
z"/>
<path fill="#E8FF3F" opacity="1.000000" stroke="none" 
	d="
M245.130417,199.180786 
	C242.629303,200.204910 240.502975,201.146286 238.327103,201.954163 
	C231.209808,204.596771 228.562088,203.625244 225.384262,196.634705 
	C223.932297,193.440659 222.012039,192.935120 219.051849,194.143097 
	C216.451035,195.204407 213.858337,196.495819 211.137360,196.969772 
	C209.625961,197.233047 206.716995,196.344498 206.463852,195.420197 
	C206.037201,193.862411 206.722763,190.716721 207.813049,190.241760 
	C213.508209,187.760803 219.394913,185.577774 225.410492,184.072418 
	C226.941910,183.689224 229.492020,185.851547 231.018234,187.394196 
	C232.602310,188.995316 233.512344,191.263306 235.010193,193.720337 
	C238.107452,192.481339 241.261368,191.159210 244.460892,189.958633 
	C247.090317,188.972000 250.457443,187.385773 251.692795,190.978500 
	C252.235001,192.555450 249.833603,195.302002 248.460312,197.306091 
	C247.874130,198.161514 246.499069,198.476379 245.130417,199.180786 
z"/>
<path fill="#E8FF3F" opacity="1.000000" stroke="none" 
	d="
M215.959595,223.027969 
	C213.481888,222.366028 211.207748,222.104309 209.401596,221.044785 
	C208.056259,220.255646 206.197632,217.906158 206.539352,217.181976 
	C207.256424,215.662354 209.396286,213.642197 210.733154,213.791183 
	C216.318512,214.413666 222.136276,215.025116 227.214523,217.181503 
	C229.490982,218.148132 231.432526,222.758987 231.393600,225.687790 
	C231.326630,230.726349 233.148758,232.225616 237.727997,232.221481 
	C239.832657,232.219574 242.241913,232.559082 243.950043,233.636414 
	C245.398819,234.550201 246.038055,236.747498 247.035522,238.376831 
	C245.458725,239.326340 243.983414,240.631348 242.274796,241.119202 
	C240.754517,241.553253 238.974808,241.099930 237.311295,241.007675 
	C223.876984,240.262589 221.679871,237.977310 221.864090,224.485306 
	C220.107315,224.038254 218.235687,223.561981 215.959595,223.027969 
z"/>
<path fill="#000" opacity="1.000000" stroke="none" 
	d="
M60.852722,65.151917 
	C53.151997,56.426884 51.729465,46.826496 55.987228,36.603203 
	C59.692421,27.706669 66.834259,22.881237 76.390854,22.097752 
	C87.710480,21.169722 98.187164,28.268482 101.890121,38.971378 
	C105.610382,49.724297 101.437447,61.834381 91.775276,68.325195 
	C82.195091,74.760941 70.691406,73.667274 60.852722,65.151917 
z"/>
</svg>