<svg version="1.1" id="Layer_1" xmlns="http://www.w3.org/2000/svg" xmlns:xlink="http://www.w3.org/1999/xlink" x="0px" y="0px"
	 width="100%" viewBox="0 0 256 256" enable-background="new 0 0 256 256" xml:space="preserve">
<path fill="#000000" opacity="1.000000" stroke="none" 
	d="
M86.000000,257.000000 
	C57.690468,257.000000 29.380938,257.000000 1.035703,257.000000 
	C1.035703,171.762161 1.035703,86.524315 1.035703,1.000000 
	C60.687256,1.000000 120.374969,1.000000 180.820587,1.301051 
	C181.130447,2.052843 180.757095,2.638481 180.223160,2.934104 
	C172.091202,7.436625 168.807465,14.228867 170.003098,24.176350 
	C170.806213,30.858128 176.958069,36.776562 184.610184,39.242603 
	C194.654160,42.479469 204.914886,35.410480 207.704742,28.460392 
	C211.289932,19.528988 208.594818,7.520688 199.422882,3.066240 
	C198.768448,2.748412 198.466080,1.705674 198.000000,0.999998 
	C217.644577,1.000000 237.289169,1.000000 256.966858,1.000000 
	C256.966858,86.215431 256.966858,171.430878 256.966858,257.000000 
	C232.313568,257.000000 207.625443,257.000000 182.167175,256.699646 
	C183.031570,254.013184 183.053375,251.831314 181.053604,249.501953 
	C178.841049,246.924774 176.849152,244.146103 174.900314,241.357895 
	C172.895065,238.488998 169.603989,235.579163 169.444916,232.552231 
	C169.097900,225.948380 170.599808,219.270416 170.954803,212.601913 
	C171.761963,197.439850 172.372681,182.266815 172.982025,167.094986 
	C173.256699,160.256058 170.567764,154.490570 166.013290,149.549103 
	C157.513351,140.326904 148.927414,131.183777 140.455231,121.936325 
	C137.156342,118.335579 134.068176,114.541756 130.928360,110.887482 
	C142.700912,95.518921 154.326401,80.302780 166.000153,65.123779 
	C170.214066,59.644550 173.925323,54.237297 173.131805,46.604141 
	C172.399414,39.558746 165.615784,32.053043 158.557175,32.020039 
	C144.226059,31.953035 129.892365,31.857962 115.563919,32.064468 
	C109.128098,32.157227 103.705986,35.186417 100.034607,40.382393 
	C93.520149,49.602097 87.159660,58.953785 81.221962,68.551666 
	C74.561172,79.318359 75.585571,88.933319 82.163483,96.360558 
	C84.903908,99.454826 85.257187,102.379295 84.940002,105.792534 
	C84.113449,114.687340 86.302254,122.579926 92.574127,129.034363 
	C99.772263,136.441986 107.243248,143.585114 114.409004,151.023010 
	C115.728775,152.392914 116.537178,154.542480 116.929192,156.465179 
	C118.092270,162.169662 119.497078,167.919693 119.709290,173.692276 
	C119.870422,178.075500 119.428673,183.110733 117.388634,186.832794 
	C109.759583,200.751938 101.362671,214.250229 93.144127,228.090912 
	C90.469650,225.318420 87.785126,222.535522 85.164436,219.818787 
	C89.093353,210.908676 93.247574,202.054398 96.911552,193.001694 
	C99.925224,185.555740 104.183830,178.465637 102.151314,169.608170 
	C100.701324,163.289322 101.003708,156.581512 99.781151,150.189377 
	C99.405922,148.227432 96.627182,145.392242 94.857002,145.323380 
	C91.724068,145.201523 90.425247,147.996475 90.977371,151.311523 
	C91.644043,155.314285 92.521500,159.335739 92.623413,163.366394 
	C92.783638,169.703491 95.070572,175.886276 92.038979,182.448639 
	C84.175591,199.470245 76.927757,216.777328 69.514725,234.005112 
	C67.650993,238.336411 69.097496,243.467758 72.822372,246.294876 
	C76.428276,249.031708 80.172653,251.586166 83.776291,254.325836 
	C84.675491,255.009460 85.267044,256.097717 86.000000,257.000000 
M57.999996,56.338913 
	C57.668446,53.098549 56.637028,49.748234 57.125858,46.636761 
	C59.302643,32.781277 65.899689,22.195745 80.203346,18.041000 
	C83.344070,17.128723 84.512703,14.970051 83.539398,12.258634 
	C82.647598,9.774253 80.936081,8.608496 77.523895,9.656610 
	C67.731445,12.664533 60.194458,18.484507 54.749878,26.865810 
	C48.618649,36.304134 47.367744,46.804020 50.175156,57.621216 
	C50.545338,59.047573 53.073792,60.443069 54.801910,60.757397 
	C55.626961,60.907459 56.919243,58.488728 57.999996,56.338913 
M88.964928,32.792603 
	C86.907249,32.221497 84.705154,30.873991 82.818977,31.224857 
	C77.159790,32.277584 71.262383,39.946354 71.009720,45.811653 
	C70.945435,47.303921 70.481895,49.086811 71.113762,50.233776 
	C72.244720,52.286705 73.861984,55.169098 75.655952,55.474792 
	C77.780617,55.836830 80.458221,53.840412 79.971558,50.611660 
	C79.092598,44.780273 81.651375,41.296711 86.816460,38.831947 
	C88.080292,38.228844 88.298523,35.434601 88.964928,32.792603 
z"/>
<path fill="#000" opacity="1.000000" stroke="none" 
	d="
M86.468658,257.000000 
	C85.267044,256.097717 84.675491,255.009460 83.776291,254.325836 
	C80.172653,251.586166 76.428276,249.031708 72.822372,246.294876 
	C69.097496,243.467758 67.650993,238.336411 69.514725,234.005112 
	C76.927757,216.777328 84.175591,199.470245 92.038979,182.448639 
	C95.070572,175.886276 92.783638,169.703491 92.623413,163.366394 
	C92.521500,159.335739 91.644043,155.314285 90.977371,151.311523 
	C90.425247,147.996475 91.724068,145.201523 94.857002,145.323380 
	C96.627182,145.392242 99.405922,148.227432 99.781151,150.189377 
	C101.003708,156.581512 100.701324,163.289322 102.151314,169.608170 
	C104.183830,178.465637 99.925224,185.555740 96.911552,193.001694 
	C93.247574,202.054398 89.093353,210.908676 85.164436,219.818787 
	C87.785126,222.535522 90.469650,225.318420 93.144127,228.090912 
	C101.362671,214.250229 109.759583,200.751938 117.388634,186.832794 
	C119.428673,183.110733 119.870422,178.075500 119.709290,173.692276 
	C119.497078,167.919693 118.092270,162.169662 116.929192,156.465179 
	C116.537178,154.542480 115.728775,152.392914 114.409004,151.023010 
	C107.243248,143.585114 99.772263,136.441986 92.574127,129.034363 
	C86.302254,122.579926 84.113449,114.687340 84.940002,105.792534 
	C85.257187,102.379295 84.903908,99.454826 82.163483,96.360558 
	C75.585571,88.933319 74.561172,79.318359 81.221962,68.551666 
	C87.159660,58.953785 93.520149,49.602097 100.034607,40.382393 
	C103.705986,35.186417 109.128098,32.157227 115.563919,32.064468 
	C129.892365,31.857962 144.226059,31.953035 158.557175,32.020039 
	C165.615784,32.053043 172.399414,39.558746 173.131805,46.604141 
	C173.925323,54.237297 170.214066,59.644550 166.000153,65.123779 
	C154.326401,80.302780 142.700912,95.518921 130.928360,110.887482 
	C134.068176,114.541756 137.156342,118.335579 140.455231,121.936325 
	C148.927414,131.183777 157.513351,140.326904 166.013290,149.549103 
	C170.567764,154.490570 173.256699,160.256058 172.982025,167.094986 
	C172.372681,182.266815 171.761963,197.439850 170.954803,212.601913 
	C170.599808,219.270416 169.097900,225.948380 169.444916,232.552231 
	C169.603989,235.579163 172.895065,238.488998 174.900314,241.357895 
	C176.849152,244.146103 178.841049,246.924774 181.053604,249.501953 
	C183.053375,251.831314 183.031570,254.013184 181.698517,256.699646 
	C168.979111,257.000000 155.958206,257.000000 142.759460,256.685699 
	C139.556458,253.851593 138.869339,250.682312 138.903839,246.763092 
	C139.101562,224.303894 139.016510,201.842026 138.964279,179.381210 
	C138.960648,177.821442 138.948257,175.860229 138.078964,174.776016 
	C134.943115,170.864899 131.438660,167.249329 128.073410,163.522141 
	C127.621277,163.885193 127.169136,164.248230 126.716995,164.611267 
	C127.049805,166.168625 127.464905,167.713593 127.701256,169.285446 
	C128.760620,176.331085 129.683792,183.236588 125.649651,189.933838 
	C117.536308,203.403183 109.851265,217.130203 101.770096,230.619461 
	C99.979980,233.607590 99.547073,235.626160 102.475128,238.107025 
	C105.764008,240.893570 108.477158,244.359039 111.762276,247.150833 
	C114.914970,249.830017 116.661568,252.820892 116.000000,257.000000 
	C106.312439,257.000000 96.624878,257.000000 86.468658,257.000000 
M147.000000,183.522751 
	C147.000000,199.278229 147.000000,215.033707 147.000000,230.723694 
	C151.990524,230.723694 156.404892,230.723694 160.592621,230.723694 
	C161.087616,226.866653 161.774429,223.323975 161.954956,219.755692 
	C162.422394,210.515823 162.657089,201.264328 163.014420,192.018600 
	C163.051865,191.049576 163.348694,190.092789 163.421310,189.122559 
	C163.959671,181.929459 165.034775,174.718277 164.829361,167.544601 
	C164.634750,160.748077 159.866669,155.830078 155.515182,151.011124 
	C146.035110,140.512604 136.558060,130.011032 127.014343,119.570518 
	C125.481415,117.893532 123.774307,115.491257 121.868217,115.189430 
	C112.460327,113.699760 102.958397,112.804062 93.489639,111.698814 
	C93.163651,112.117371 92.837654,112.535919 92.511658,112.954475 
	C95.369789,117.162247 97.702492,121.876144 101.180519,125.486771 
	C113.658142,138.440109 126.225769,151.339401 139.377625,163.595718 
	C145.225159,169.045090 148.432343,174.611481 147.000000,183.522751 
M100.528740,90.975601 
	C98.138077,94.693176 95.747421,98.410759 93.033241,102.631409 
	C101.332939,103.861404 108.512550,105.302940 115.757584,105.810524 
	C118.596222,106.009399 122.129478,108.132172 124.725075,104.720642 
	C137.477066,87.960060 150.229584,71.199837 163.017365,54.466576 
	C166.858170,49.440750 164.984543,42.001286 158.675339,41.147068 
	C148.979828,39.834362 139.078232,40.043797 129.273010,39.607761 
	C129.273010,44.957378 129.273010,49.361538 129.273010,54.000057 
	C133.680969,54.000057 137.819397,54.058689 141.955200,53.980011 
	C144.844147,53.925049 146.967911,54.901745 146.936996,58.039341 
	C146.906082,61.175098 144.760040,62.068539 141.875427,62.027058 
	C135.716522,61.938496 129.548645,61.840210 123.399651,62.102478 
	C121.671944,62.176167 119.316521,63.013542 118.408272,64.311699 
	C112.417824,72.873810 106.743965,81.657425 100.528740,90.975601 
M88.928993,90.387016 
	C89.528412,90.159424 90.391548,90.111969 90.688278,89.677605 
	C96.495628,81.176468 101.916046,72.387222 108.121796,64.191643 
	C111.429588,59.823215 112.513062,52.188210 120.777100,53.932014 
	C120.777100,49.010307 120.777100,44.571743 120.777100,39.833473 
	C114.123863,40.414974 108.614738,42.394001 104.969055,48.167747 
	C99.479210,56.862125 94.139732,65.668869 88.242455,74.081627 
	C85.028168,78.666962 84.522865,85.617233 88.928993,90.387016 
M84.998924,232.498001 
	C84.032883,231.154404 83.066833,229.810791 81.771965,228.009842 
	C79.959167,232.289230 78.663147,235.348709 77.296822,238.574127 
	C84.610397,242.626694 89.811035,251.944687 100.978943,248.429367 
	C95.713478,243.180923 90.605751,238.089706 84.998924,232.498001 
M147.000305,241.619476 
	C147.000305,244.039047 147.000305,246.458618 147.000305,248.713623 
	C154.710693,248.713623 161.762054,248.713623 169.311356,248.713623 
	C165.535004,242.547424 162.062729,237.071823 153.816589,238.948441 
	C152.233444,239.308746 150.475739,238.843948 148.844620,239.079208 
	C148.168777,239.176697 147.614044,240.113937 147.000305,241.619476 
z"/>
<path fill="#000000" opacity="1.000000" stroke="none" 
	d="
M116.468651,257.000000 
	C116.661568,252.820892 114.914970,249.830017 111.762276,247.150833 
	C108.477158,244.359039 105.764008,240.893570 102.475128,238.107025 
	C99.547073,235.626160 99.979980,233.607590 101.770096,230.619461 
	C109.851265,217.130203 117.536308,203.403183 125.649651,189.933838 
	C129.683792,183.236588 128.760620,176.331085 127.701256,169.285446 
	C127.464905,167.713593 127.049805,166.168625 126.716995,164.611267 
	C127.169136,164.248230 127.621277,163.885193 128.073410,163.522141 
	C131.438660,167.249329 134.943115,170.864899 138.078964,174.776016 
	C138.948257,175.860229 138.960648,177.821442 138.964279,179.381210 
	C139.016510,201.842026 139.101562,224.303894 138.903839,246.763092 
	C138.869339,250.682312 139.556458,253.851593 142.290802,256.685699 
	C133.645767,257.000000 125.291534,257.000000 116.468651,257.000000 
z"/>
<path fill="#FFFFFF" opacity="1.000000" stroke="none" 
	d="
M197.532394,0.999998 
	C198.466080,1.705674 198.768448,2.748412 199.422882,3.066240 
	C208.594818,7.520688 211.289932,19.528988 207.704742,28.460392 
	C204.914886,35.410480 194.654160,42.479469 184.610184,39.242603 
	C176.958069,36.776562 170.806213,30.858128 170.003098,24.176350 
	C168.807465,14.228867 172.091202,7.436625 180.223160,2.934104 
	C180.757095,2.638481 181.130447,2.052843 181.289246,1.301051 
	C186.354935,1.000000 191.709854,1.000000 197.532394,0.999998 
M188.195831,31.028084 
	C195.317795,31.858900 202.029495,25.646709 200.984695,19.190998 
	C200.180405,14.221387 194.214554,8.958979 189.431870,9.000386 
	C184.301300,9.044806 178.548813,14.444392 178.001694,19.729382 
	C177.488403,24.687361 181.567474,29.576082 188.195831,31.028084 
z"/>
<path fill="#E8FF3F" opacity="1.000000" stroke="none" 
	d="
M57.999947,56.786217 
	C56.919243,58.488728 55.626961,60.907459 54.801910,60.757397 
	C53.073792,60.443069 50.545338,59.047573 50.175156,57.621216 
	C47.367744,46.804020 48.618649,36.304134 54.749878,26.865810 
	C60.194458,18.484507 67.731445,12.664533 77.523895,9.656610 
	C80.936081,8.608496 82.647598,9.774253 83.539398,12.258634 
	C84.512703,14.970051 83.344070,17.128723 80.203346,18.041000 
	C65.899689,22.195745 59.302643,32.781277 57.125858,46.636761 
	C56.637028,49.748234 57.668446,53.098549 57.999947,56.786217 
z"/>
<path fill="#E8FF3F" opacity="1.000000" stroke="none" 
	d="
M88.981201,33.220181 
	C88.298523,35.434601 88.080292,38.228844 86.816460,38.831947 
	C81.651375,41.296711 79.092598,44.780273 79.971558,50.611660 
	C80.458221,53.840412 77.780617,55.836830 75.655952,55.474792 
	C73.861984,55.169098 72.244720,52.286705 71.113762,50.233776 
	C70.481895,49.086811 70.945435,47.303921 71.009720,45.811653 
	C71.262383,39.946354 77.159790,32.277584 82.818977,31.224857 
	C84.705154,30.873991 86.907249,32.221497 88.981201,33.220181 
z"/>
<path fill="#727272" opacity="1.000000" stroke="none" 
	d="
M147.000000,183.028778 
	C148.432343,174.611481 145.225159,169.045090 139.377625,163.595718 
	C126.225769,151.339401 113.658142,138.440109 101.180519,125.486771 
	C97.702492,121.876144 95.369789,117.162247 92.511658,112.954475 
	C92.837654,112.535919 93.163651,112.117371 93.489639,111.698814 
	C102.958397,112.804062 112.460327,113.699760 121.868217,115.189430 
	C123.774307,115.491257 125.481415,117.893532 127.014343,119.570518 
	C136.558060,130.011032 146.035110,140.512604 155.515182,151.011124 
	C159.866669,155.830078 164.634750,160.748077 164.829361,167.544601 
	C165.034775,174.718277 163.959671,181.929459 163.421310,189.122559 
	C163.348694,190.092789 163.051865,191.049576 163.014420,192.018600 
	C162.657089,201.264328 162.422394,210.515823 161.954956,219.755692 
	C161.774429,223.323975 161.087616,226.866653 160.592621,230.723694 
	C156.404892,230.723694 151.990524,230.723694 147.000000,230.723694 
	C147.000000,215.033707 147.000000,199.278229 147.000000,183.028778 
z"/>
<path fill="#E8FF3F" opacity="1.000000" stroke="none" 
	d="
M100.747833,90.672226 
	C106.743965,81.657425 112.417824,72.873810 118.408272,64.311699 
	C119.316521,63.013542 121.671944,62.176167 123.399651,62.102478 
	C129.548645,61.840210 135.716522,61.938496 141.875427,62.027058 
	C144.760040,62.068539 146.906082,61.175098 146.936996,58.039341 
	C146.967911,54.901745 144.844147,53.925049 141.955200,53.980011 
	C137.819397,54.058689 133.680969,54.000057 129.273010,54.000057 
	C129.273010,49.361538 129.273010,44.957378 129.273010,39.607761 
	C139.078232,40.043797 148.979828,39.834362 158.675339,41.147068 
	C164.984543,42.001286 166.858170,49.440750 163.017365,54.466576 
	C150.229584,71.199837 137.477066,87.960060 124.725075,104.720642 
	C122.129478,108.132172 118.596222,106.009399 115.757584,105.810524 
	C108.512550,105.302940 101.332939,103.861404 93.033241,102.631409 
	C95.747421,98.410759 98.138077,94.693176 100.747833,90.672226 
z"/>
<path fill="#FFF" opacity="1.000000" stroke="none" 
	d="
M88.643631,90.144821 
	C84.522865,85.617233 85.028168,78.666962 88.242455,74.081627 
	C94.139732,65.668869 99.479210,56.862125 104.969055,48.167747 
	C108.614738,42.394001 114.123863,40.414974 120.777100,39.833473 
	C120.777100,44.571743 120.777100,49.010307 120.777100,53.932014 
	C112.513062,52.188210 111.429588,59.823215 108.121796,64.191643 
	C101.916046,72.387222 96.495628,81.176468 90.688278,89.677605 
	C90.391548,90.111969 89.528412,90.159424 88.643631,90.144821 
z"/>
<path fill="#000" opacity="1.000000" stroke="none" 
	d="
M85.248474,232.748245 
	C90.605751,238.089706 95.713478,243.180923 100.978943,248.429367 
	C89.811035,251.944687 84.610397,242.626694 77.296822,238.574127 
	C78.663147,235.348709 79.959167,232.289230 81.771965,228.009842 
	C83.066833,229.810791 84.032883,231.154404 85.248474,232.748245 
z"/>
<path fill="#FFF" opacity="1.000000" stroke="none" 
	d="
M147.002274,241.144379 
	C147.614044,240.113937 148.168777,239.176697 148.844620,239.079208 
	C150.475739,238.843948 152.233444,239.308746 153.816589,238.948441 
	C162.062729,237.071823 165.535004,242.547424 169.311356,248.713623 
	C161.762054,248.713623 154.710693,248.713623 147.000305,248.713623 
	C147.000305,246.458618 147.000305,244.039047 147.002274,241.144379 
z"/>
<path fill="#000" opacity="1.000000" stroke="none" 
	d="
M187.801590,31.015047 
	C181.567474,29.576082 177.488403,24.687361 178.001694,19.729382 
	C178.548813,14.444392 184.301300,9.044806 189.431870,9.000386 
	C194.214554,8.958979 200.180405,14.221387 200.984695,19.190998 
	C202.029495,25.646709 195.317795,31.858900 187.801590,31.015047 
z"/>
</svg>